<svg id="svg" version="1.1" xmlns="http://www.w3.org/2000/svg" xmlns:xlink="http://www.w3.org/1999/xlink" width="400" height="391.8604651162791" viewBox="0, 0, 400,391.8604651162791"><g id="svgg"><path id="path0" d="M271.667 59.117 C 275.387 59.181,281.475 59.181,285.196 59.117 C 288.917 59.053,285.873 59.000,278.431 59.000 C 270.990 59.000,267.946 59.053,271.667 59.117 M295.882 59.097 C 291.898 59.308,291.860 59.331,291.667 61.665 C 291.486 63.853,290.829 68.466,290.146 72.353 C 289.918 73.647,289.574 76.029,289.382 77.647 C 289.019 80.698,288.355 85.596,287.256 93.333 C 285.705 104.252,285.420 106.309,284.923 110.196 C 284.633 112.461,284.288 114.755,284.157 115.294 C 284.025 115.833,283.749 117.686,283.542 119.412 C 283.335 121.137,282.890 124.490,282.553 126.863 C 282.216 129.235,281.770 132.588,281.560 134.314 C 281.351 136.039,281.093 137.828,280.986 138.289 C 280.879 138.750,280.515 141.133,280.178 143.583 C 279.841 146.034,279.302 149.892,278.982 152.157 C 278.661 154.422,278.236 157.951,278.038 160.000 C 277.699 163.490,277.500 164.733,277.022 166.346 C 276.827 167.005,279.700 168.627,281.062 168.627 C 281.989 168.627,287.078 171.320,289.409 173.043 C 296.849 178.544,300.680 189.962,298.235 199.349 C 297.912 200.591,297.647 202.029,297.647 202.545 C 297.647 203.061,297.484 203.584,297.285 203.707 C 297.086 203.830,296.808 204.454,296.668 205.093 C 295.289 211.371,284.284 223.529,279.980 223.529 C 279.646 223.529,279.200 223.702,278.989 223.913 C 276.995 225.907,268.439 225.484,263.226 223.134 C 259.731 221.558,260.146 220.859,259.614 229.217 C 259.366 233.098,259.003 236.980,258.807 237.843 C 258.116 240.885,258.874 249.726,260.048 252.302 C 260.832 254.021,260.256 254.648,258.738 253.728 C 255.908 252.013,255.569 252.152,254.445 255.490 C 254.009 256.784,253.316 258.583,252.905 259.488 C 252.493 260.393,252.157 261.228,252.157 261.344 C 252.157 261.460,251.354 263.191,250.374 265.189 C 243.050 280.116,233.888 291.097,220.147 301.418 C 217.739 303.226,215.644 304.706,215.491 304.706 C 215.337 304.706,214.427 305.235,213.469 305.882 C 212.510 306.529,211.589 307.059,211.421 307.059 C 210.385 307.059,209.294 309.023,209.936 309.733 C 210.295 310.129,210.588 310.738,210.588 311.086 C 210.588 311.434,210.764 311.827,210.980 311.960 C 211.195 312.093,211.825 313.118,212.379 314.238 C 213.599 316.701,216.694 322.584,218.547 325.963 C 219.292 327.321,220.868 330.284,222.050 332.549 C 227.881 343.719,230.554 348.679,231.111 349.363 C 231.549 349.900,234.042 354.599,235.763 358.129 C 236.685 360.021,237.385 360.464,237.789 359.412 C 237.913 359.088,238.461 358.824,239.007 358.824 C 239.628 358.824,240.000 358.603,240.000 358.235 C 240.000 357.843,240.392 357.647,241.176 357.647 C 241.961 357.647,242.353 357.451,242.353 357.059 C 242.353 356.685,242.729 356.471,243.386 356.471 C 243.967 356.471,244.793 356.068,245.271 355.552 C 245.740 355.046,246.598 354.514,247.179 354.368 C 247.760 354.222,248.235 353.930,248.235 353.718 C 248.235 353.506,248.473 353.333,248.763 353.333 C 249.053 353.333,249.610 352.980,250.000 352.549 C 250.390 352.118,250.947 351.765,251.237 351.765 C 251.527 351.765,251.765 351.607,251.765 351.415 C 251.765 351.223,252.206 350.955,252.745 350.819 C 253.284 350.684,253.725 350.400,253.725 350.189 C 253.725 349.977,253.996 349.804,254.326 349.804 C 254.656 349.804,255.028 349.539,255.152 349.216 C 255.276 348.892,255.560 348.627,255.783 348.627 C 256.006 348.627,256.389 348.353,256.634 348.017 C 256.880 347.682,257.428 347.349,257.854 347.279 C 258.279 347.208,258.583 346.954,258.529 346.713 C 258.475 346.472,258.652 346.270,258.922 346.264 C 259.191 346.258,259.926 345.728,260.556 345.087 C 261.185 344.446,261.940 343.922,262.235 343.922 C 262.529 343.922,262.871 343.657,262.995 343.333 C 263.120 343.010,263.376 342.745,263.564 342.745 C 264.064 342.745,266.667 340.141,266.667 339.641 C 266.667 339.407,266.931 339.216,267.255 339.216 C 267.578 339.216,267.843 339.010,267.843 338.758 C 267.843 338.507,267.950 338.408,268.081 338.539 C 268.332 338.790,268.731 338.511,270.623 336.765 C 271.266 336.172,271.962 335.686,272.170 335.686 C 272.379 335.686,272.549 335.422,272.549 335.098 C 272.549 334.775,272.814 334.510,273.137 334.510 C 273.461 334.510,273.725 334.245,273.725 333.922 C 273.725 333.598,273.990 333.333,274.314 333.333 C 274.637 333.333,274.902 333.069,274.902 332.745 C 274.902 332.422,275.167 332.157,275.490 332.157 C 275.814 332.157,276.078 331.892,276.078 331.569 C 276.078 331.245,276.343 330.980,276.667 330.980 C 276.990 330.980,277.255 330.716,277.255 330.392 C 277.255 330.069,277.520 329.804,277.843 329.804 C 278.167 329.804,278.431 329.539,278.431 329.216 C 278.431 328.892,278.696 328.627,279.020 328.627 C 279.343 328.627,279.608 328.363,279.608 328.039 C 279.608 327.716,279.873 327.451,280.196 327.451 C 280.520 327.451,280.784 327.262,280.784 327.031 C 280.784 326.800,281.005 326.365,281.275 326.064 C 282.459 324.743,282.683 324.383,282.460 324.159 C 282.329 324.029,282.428 323.922,282.680 323.922 C 282.931 323.922,283.137 323.657,283.137 323.333 C 283.137 323.010,283.402 322.745,283.725 322.745 C 284.049 322.745,284.314 322.480,284.314 322.157 C 284.314 321.833,284.488 321.569,284.701 321.569 C 285.298 321.569,286.667 320.279,286.667 319.717 C 286.667 319.441,286.849 319.216,287.071 319.216 C 287.294 319.216,287.594 318.907,287.738 318.529 C 288.036 317.748,288.318 317.383,290.098 315.472 C 290.799 314.719,291.375 313.886,291.378 313.620 C 291.381 313.355,292.093 312.351,292.960 311.390 C 293.826 310.429,294.634 309.250,294.754 308.771 C 294.874 308.292,295.222 307.804,295.526 307.688 C 295.830 307.571,296.078 307.205,296.078 306.875 C 296.078 306.545,296.252 306.275,296.463 306.275 C 296.675 306.275,296.955 305.846,297.087 305.322 C 297.218 304.799,297.574 304.275,297.879 304.158 C 298.183 304.042,298.431 303.676,298.431 303.346 C 298.431 303.015,298.604 302.745,298.816 302.745 C 299.028 302.745,299.311 302.304,299.447 301.765 C 299.582 301.225,299.850 300.784,300.043 300.784 C 300.235 300.784,300.392 300.255,300.392 299.608 C 300.392 298.931,300.600 298.429,300.882 298.427 C 301.152 298.424,301.723 297.674,302.151 296.760 C 302.579 295.846,303.152 294.957,303.425 294.784 C 303.698 294.612,303.922 294.057,303.922 293.552 C 303.922 293.046,304.186 292.531,304.510 292.407 C 304.833 292.283,305.098 291.735,305.098 291.189 C 305.098 290.568,305.318 290.196,305.686 290.196 C 306.074 290.196,306.275 289.809,306.275 289.062 C 306.275 288.415,306.527 287.830,306.863 287.701 C 307.210 287.568,307.451 286.979,307.451 286.264 C 307.451 285.597,307.609 285.149,307.802 285.269 C 308.225 285.530,308.627 284.590,308.627 283.343 C 308.627 282.845,308.892 282.335,309.216 282.211 C 309.539 282.087,309.804 281.533,309.804 280.980 C 309.804 280.428,310.069 279.874,310.392 279.750 C 310.772 279.604,310.980 278.997,310.980 278.039 C 310.980 277.081,311.189 276.474,311.569 276.329 C 311.892 276.205,312.157 275.651,312.157 275.098 C 312.157 274.545,312.422 273.991,312.745 273.867 C 313.130 273.720,313.333 273.109,313.333 272.103 C 313.333 271.096,313.537 270.485,313.922 270.338 C 314.301 270.192,314.510 269.585,314.510 268.627 C 314.510 267.669,314.718 267.063,315.098 266.917 C 315.498 266.764,315.686 266.137,315.686 264.962 C 315.686 263.904,315.914 263.044,316.275 262.745 C 316.629 262.451,316.863 261.592,316.863 260.582 C 316.863 259.455,317.055 258.834,317.451 258.682 C 317.872 258.520,318.039 257.862,318.039 256.362 C 318.039 255.127,318.276 253.955,318.615 253.506 C 318.956 253.055,319.196 251.857,319.203 250.565 C 319.211 249.273,319.450 248.075,319.791 247.624 C 320.163 247.132,320.376 245.890,320.392 244.118 C 320.408 242.345,320.621 241.103,320.993 240.611 C 321.436 240.025,321.569 238.571,321.569 234.287 C 321.569 229.820,321.685 228.627,322.157 228.235 C 323.031 227.510,323.031 211.314,322.157 210.588 C 321.678 210.191,321.569 208.907,321.569 203.665 C 321.569 198.307,321.470 197.193,320.980 197.005 C 320.515 196.826,320.392 196.006,320.392 193.083 C 320.392 190.160,320.269 189.340,319.804 189.161 C 319.366 188.993,319.216 188.294,319.216 186.416 C 319.216 184.539,319.066 183.839,318.627 183.671 C 318.205 183.509,318.039 182.847,318.039 181.318 C 318.039 179.789,317.874 179.128,317.451 178.965 C 317.054 178.813,316.863 178.190,316.863 177.049 C 316.863 175.092,316.539 174.029,316.037 174.339 C 315.844 174.458,315.686 173.663,315.686 172.572 C 315.686 171.070,315.543 170.588,315.098 170.588 C 314.662 170.588,314.510 170.131,314.510 168.824 C 314.510 167.516,314.357 167.059,313.922 167.059 C 313.486 167.059,313.333 166.601,313.333 165.294 C 313.333 163.987,313.181 163.529,312.745 163.529 C 312.362 163.529,312.157 163.146,312.157 162.428 C 312.157 161.822,311.898 160.984,311.581 160.565 C 311.264 160.146,311.000 159.319,310.993 158.725 C 310.985 158.034,310.769 157.647,310.392 157.647 C 310.024 157.647,309.804 157.275,309.804 156.654 C 309.804 156.108,309.539 155.560,309.216 155.436 C 308.832 155.289,308.627 154.679,308.627 153.684 C 308.627 152.588,308.461 152.157,308.039 152.157 C 307.652 152.157,307.451 151.769,307.451 151.022 C 307.451 150.376,307.198 149.791,306.863 149.662 C 306.539 149.538,306.275 149.009,306.275 148.486 C 306.275 147.963,306.010 147.433,305.686 147.309 C 305.363 147.185,305.098 146.637,305.098 146.091 C 305.098 145.470,304.878 145.098,304.510 145.098 C 304.118 145.098,303.922 144.706,303.922 143.922 C 303.922 143.137,303.725 142.745,303.333 142.745 C 303.010 142.745,302.723 142.480,302.696 142.157 C 302.602 141.027,302.547 140.847,302.192 140.523 C 301.981 140.329,301.965 140.421,302.155 140.747 C 302.370 141.117,302.326 141.206,302.021 141.018 C 301.772 140.864,301.569 140.395,301.569 139.977 C 301.569 139.558,301.304 139.216,300.980 139.216 C 300.588 139.216,300.392 138.824,300.392 138.039 C 300.392 137.392,300.235 136.863,300.043 136.863 C 299.850 136.863,299.573 136.386,299.427 135.804 C 299.281 135.222,298.733 134.348,298.208 133.862 C 297.246 132.971,297.008 132.332,297.549 132.092 C 297.996 131.893,299.608 129.500,299.608 129.035 C 299.608 128.811,299.784 128.627,300.000 128.627 C 300.216 128.627,300.392 128.363,300.392 128.039 C 300.392 127.716,300.657 127.451,300.980 127.451 C 301.304 127.451,301.569 127.186,301.569 126.863 C 301.569 126.539,301.833 126.275,302.157 126.275 C 302.480 126.275,302.745 126.004,302.745 125.674 C 302.745 125.344,303.010 124.972,303.333 124.848 C 303.657 124.724,303.922 124.200,303.922 123.684 C 303.922 123.111,304.151 122.745,304.510 122.745 C 304.833 122.745,305.098 122.480,305.098 122.157 C 305.098 121.833,305.363 121.569,305.686 121.569 C 306.010 121.569,306.275 121.304,306.275 120.980 C 306.275 120.657,306.539 120.392,306.863 120.392 C 307.186 120.392,307.451 120.146,307.451 119.846 C 307.451 119.545,307.716 119.198,308.039 119.074 C 308.363 118.950,308.627 118.401,308.627 117.855 C 308.627 117.234,308.848 116.863,309.216 116.863 C 309.539 116.863,309.804 116.598,309.804 116.275 C 309.804 115.951,310.069 115.686,310.392 115.686 C 310.716 115.686,310.980 115.422,310.980 115.098 C 310.980 114.775,311.245 114.510,311.569 114.510 C 311.892 114.510,312.157 114.264,312.157 113.964 C 312.157 113.663,312.422 113.316,312.745 113.192 C 313.069 113.067,313.333 112.519,313.333 111.973 C 313.333 111.352,313.554 110.980,313.922 110.980 C 314.245 110.980,314.510 110.716,314.510 110.392 C 314.510 110.069,314.775 109.804,315.098 109.804 C 315.422 109.804,315.686 109.539,315.686 109.216 C 315.686 108.892,315.951 108.627,316.275 108.627 C 316.598 108.627,316.863 108.363,316.863 108.039 C 316.863 107.716,317.044 107.451,317.265 107.451 C 317.486 107.451,317.834 107.010,318.039 106.471 C 318.244 105.931,318.593 105.490,318.814 105.490 C 319.035 105.490,319.223 105.270,319.232 105.000 C 319.241 104.730,319.771 104.077,320.409 103.548 C 321.047 103.019,321.569 102.445,321.569 102.273 C 321.569 102.101,321.877 101.620,322.255 101.205 C 323.545 99.783,323.922 99.249,323.922 98.840 C 323.922 98.615,324.186 98.431,324.510 98.431 C 324.833 98.431,325.106 98.211,325.115 97.941 C 325.124 97.672,325.653 97.018,326.291 96.489 C 326.929 95.960,327.451 95.298,327.451 95.018 C 327.451 94.739,327.624 94.510,327.836 94.510 C 328.047 94.510,328.331 94.069,328.466 93.529 C 328.602 92.990,328.958 92.549,329.258 92.549 C 329.558 92.549,329.804 92.387,329.804 92.190 C 329.804 91.992,330.517 91.066,331.389 90.131 C 332.261 89.196,333.075 88.034,333.197 87.549 C 333.319 87.064,333.576 86.667,333.768 86.667 C 333.960 86.667,334.118 86.402,334.118 86.078 C 334.118 85.755,334.382 85.490,334.706 85.490 C 335.029 85.490,335.294 85.225,335.294 84.902 C 335.294 84.578,335.559 84.314,335.882 84.314 C 336.206 84.314,336.471 84.049,336.471 83.725 C 336.471 83.402,336.735 83.137,337.059 83.137 C 337.451 83.137,337.647 82.745,337.647 81.961 C 337.647 81.176,337.843 80.784,338.235 80.784 C 338.559 80.784,338.824 80.520,338.824 80.196 C 338.824 79.873,339.088 79.608,339.412 79.608 C 339.735 79.608,340.000 79.343,340.000 79.020 C 340.000 78.696,340.265 78.431,340.588 78.431 C 340.912 78.431,341.176 78.186,341.176 77.885 C 341.176 77.585,341.441 77.237,341.765 77.113 C 342.088 76.989,342.353 76.441,342.353 75.895 C 342.353 75.274,342.573 74.902,342.941 74.902 C 343.265 74.902,343.529 74.637,343.529 74.314 C 343.529 73.990,343.794 73.725,344.118 73.725 C 344.441 73.725,344.706 73.461,344.706 73.137 C 344.706 72.814,344.971 72.549,345.294 72.549 C 345.618 72.549,345.882 72.284,345.882 71.961 C 345.882 71.637,346.147 71.373,346.471 71.373 C 346.837 71.373,347.059 71.002,347.059 70.392 C 347.059 69.782,347.281 69.412,347.647 69.412 C 347.971 69.412,348.243 69.191,348.252 68.922 C 348.261 68.652,348.790 67.998,349.428 67.469 C 350.066 66.940,350.588 66.279,350.588 65.999 C 350.588 65.719,350.853 65.490,351.176 65.490 C 351.500 65.490,351.765 65.225,351.765 64.902 C 351.765 64.578,351.938 64.314,352.149 64.314 C 352.361 64.314,352.645 63.873,352.780 63.333 C 352.915 62.794,353.272 62.353,353.572 62.353 C 354.651 62.353,354.208 60.223,352.979 59.496 C 351.920 58.871,306.173 58.551,295.882 59.097 M19.216 288.431 C 19.216 288.755,19.480 289.020,19.804 289.020 C 20.127 289.020,20.392 288.755,20.392 288.431 C 20.392 288.108,20.127 287.843,19.804 287.843 C 19.480 287.843,19.216 288.108,19.216 288.431 " stroke="none" fill="#1c9cb6" fill-rule="evenodd"></path><path id="path1" d="M125.588 160.673 C 126.181 160.763,127.152 160.763,127.745 160.673 C 128.338 160.583,127.853 160.510,126.667 160.510 C 125.480 160.510,124.995 160.583,125.588 160.673 M130.490 160.669 C 130.975 160.762,131.770 160.762,132.255 160.669 C 132.740 160.575,132.343 160.499,131.373 160.499 C 130.402 160.499,130.005 160.575,130.490 160.669 M196.191 160.682 C 197.439 160.760,199.380 160.760,200.505 160.681 C 201.629 160.602,200.608 160.538,198.235 160.539 C 195.863 160.540,194.943 160.604,196.191 160.682 M151.765 168.750 C 151.765 168.818,152.338 169.391,153.039 170.025 L 154.314 171.176 153.162 169.902 C 152.088 168.714,151.765 168.447,151.765 168.750 M231.373 176.593 C 231.373 176.661,231.946 177.234,232.647 177.868 L 233.922 179.020 232.770 177.745 C 231.696 176.557,231.373 176.290,231.373 176.593 M78.130 218.431 C 78.130 219.186,78.211 219.495,78.310 219.118 C 78.408 218.740,78.408 218.123,78.310 217.745 C 78.211 217.368,78.130 217.676,78.130 218.431 M248.740 219.020 C 248.743 220.098,248.819 220.493,248.909 219.897 C 248.999 219.300,248.997 218.418,248.904 217.936 C 248.810 217.453,248.737 217.941,248.740 219.020 M66.408 221.765 C 65.155 222.925,64.635 223.282,63.333 223.874 C 61.546 224.686,56.466 225.873,54.751 225.878 C 53.102 225.883,53.023 225.947,49.608 230.013 C 47.644 232.350,45.370 234.895,43.526 236.817 C 42.985 237.382,42.035 238.461,41.415 239.216 C 40.383 240.473,36.306 245.130,34.902 246.655 C 34.578 247.007,33.078 248.697,31.569 250.411 C 28.077 254.375,26.234 256.444,25.490 257.234 C 25.167 257.577,23.681 259.267,22.189 260.988 C 15.804 268.355,13.555 270.635,12.853 270.452 C 11.975 270.222,11.903 271.455,12.745 272.297 C 13.069 272.620,13.333 273.275,13.333 273.752 C 13.333 274.229,13.593 274.815,13.909 275.055 C 14.226 275.294,14.528 276.172,14.581 277.005 C 14.633 277.838,14.903 278.607,15.181 278.714 C 15.459 278.820,15.686 279.311,15.686 279.804 C 15.686 280.297,15.951 280.802,16.275 280.926 C 16.663 281.075,16.863 281.689,16.863 282.733 C 16.863 283.877,17.025 284.314,17.451 284.314 C 17.802 284.314,18.039 284.674,18.039 285.207 C 18.039 286.086,18.977 287.175,20.039 287.529 C 20.396 287.648,20.539 288.181,20.461 289.096 C 20.386 289.965,20.570 290.710,20.955 291.095 C 21.292 291.433,21.569 292.162,21.569 292.717 C 21.569 293.352,21.786 293.725,22.157 293.725 C 22.669 293.725,22.942 294.442,22.792 295.392 C 22.766 295.554,23.010 295.686,23.333 295.686 C 23.660 295.686,23.922 296.035,23.922 296.471 C 23.922 296.906,24.183 297.255,24.510 297.255 C 24.902 297.255,25.098 297.647,25.098 298.431 C 25.098 299.216,25.294 299.608,25.686 299.608 C 26.078 299.608,26.275 300.000,26.275 300.784 C 26.275 301.569,26.471 301.961,26.863 301.961 C 27.186 301.961,27.451 302.225,27.451 302.549 C 27.451 302.873,27.716 303.137,28.039 303.137 C 28.407 303.137,28.627 303.509,28.627 304.130 C 28.627 304.676,28.876 305.218,29.180 305.335 C 29.484 305.451,29.841 305.975,29.972 306.499 C 30.103 307.023,30.384 307.451,30.596 307.451 C 30.807 307.451,30.980 307.804,30.980 308.235 C 30.980 308.671,31.242 309.020,31.569 309.020 C 31.892 309.020,32.157 309.284,32.157 309.608 C 32.157 309.931,32.422 310.196,32.745 310.196 C 33.069 310.196,33.333 310.540,33.333 310.960 C 33.333 311.380,33.779 312.205,34.323 312.792 C 34.868 313.380,35.416 314.270,35.541 314.771 C 35.667 315.271,35.915 315.591,36.092 315.482 C 36.269 315.372,36.527 315.638,36.665 316.073 C 36.803 316.507,37.080 316.863,37.281 316.863 C 37.482 316.863,37.647 317.060,37.647 317.301 C 37.647 317.542,38.351 318.444,39.212 319.305 C 40.073 320.166,40.681 321.027,40.562 321.219 C 40.443 321.411,40.631 321.569,40.980 321.569 C 41.329 321.569,41.505 321.746,41.371 321.964 C 41.237 322.181,41.403 322.464,41.740 322.594 C 42.077 322.723,42.353 323.075,42.353 323.375 C 42.353 323.676,42.529 323.922,42.745 323.922 C 43.254 323.922,44.706 325.374,44.706 325.882 C 44.706 326.098,44.971 326.275,45.294 326.275 C 45.618 326.275,45.882 326.539,45.882 326.863 C 45.882 327.186,46.147 327.451,46.471 327.451 C 46.794 327.451,47.059 327.716,47.059 328.039 C 47.059 328.363,47.324 328.627,47.647 328.627 C 47.971 328.627,48.235 328.892,48.235 329.216 C 48.235 329.539,48.500 329.804,48.824 329.804 C 49.147 329.804,49.412 330.069,49.412 330.392 C 49.412 330.716,49.676 330.980,50.000 330.980 C 50.324 330.980,50.588 331.245,50.588 331.569 C 50.588 331.892,50.853 332.157,51.176 332.157 C 51.500 332.157,51.765 332.422,51.765 332.745 C 51.765 333.069,52.029 333.333,52.353 333.333 C 52.676 333.333,52.941 333.598,52.941 333.922 C 52.941 334.245,53.206 334.510,53.529 334.510 C 53.853 334.510,54.118 334.775,54.118 335.098 C 54.118 335.422,54.382 335.686,54.706 335.686 C 55.029 335.686,55.294 335.951,55.294 336.275 C 55.294 336.598,55.459 336.863,55.660 336.863 C 55.860 336.863,57.094 337.922,58.400 339.216 C 59.721 340.525,61.125 341.569,61.564 341.569 C 62.004 341.569,62.353 341.829,62.353 342.157 C 62.353 342.480,62.529 342.745,62.745 342.745 C 63.254 342.745,64.706 344.197,64.706 344.706 C 64.706 344.922,64.978 345.098,65.311 345.098 C 65.905 345.098,66.364 345.397,67.871 346.765 C 68.287 347.142,68.804 347.451,69.020 347.451 C 69.235 347.451,69.412 347.697,69.412 347.997 C 69.412 348.297,69.853 348.653,70.392 348.788 C 70.931 348.924,71.373 349.208,71.373 349.419 C 71.373 349.631,71.683 349.804,72.063 349.804 C 72.442 349.804,72.973 350.157,73.242 350.588 C 73.512 351.020,73.995 351.373,74.317 351.373 C 74.639 351.373,74.902 351.549,74.902 351.765 C 74.902 351.980,75.148 352.157,75.448 352.157 C 75.749 352.157,76.106 352.447,76.242 352.801 C 76.378 353.156,76.601 353.334,76.738 353.197 C 76.875 353.060,77.223 353.145,77.513 353.385 C 77.802 353.625,78.039 353.679,78.039 353.504 C 78.039 353.329,78.525 353.641,79.118 354.196 C 79.711 354.752,80.593 355.326,81.078 355.473 C 81.564 355.619,81.961 355.904,81.961 356.105 C 81.961 356.306,82.238 356.471,82.577 356.471 C 82.916 356.471,83.458 356.735,83.782 357.059 C 84.105 357.382,84.710 357.647,85.126 357.647 C 85.542 357.647,85.838 357.863,85.784 358.128 C 85.730 358.392,86.127 358.674,86.667 358.754 C 87.206 358.834,87.788 359.147,87.961 359.449 C 88.133 359.752,88.707 360.000,89.235 360.000 C 89.828 360.000,90.196 360.225,90.196 360.588 C 90.196 360.980,90.588 361.176,91.373 361.176 C 92.157 361.176,92.549 361.373,92.549 361.765 C 92.549 362.157,92.941 362.353,93.725 362.353 C 94.510 362.353,94.902 362.549,94.902 362.941 C 94.902 363.312,95.275 363.529,95.910 363.529 C 96.465 363.529,97.183 363.794,97.507 364.118 C 97.831 364.441,98.700 364.706,99.440 364.706 C 100.293 364.706,100.749 364.881,100.686 365.187 C 100.632 365.451,101.022 365.733,101.553 365.813 C 102.084 365.893,102.702 366.195,102.926 366.484 C 103.150 366.773,103.863 367.065,104.510 367.132 C 105.157 367.200,105.649 367.455,105.604 367.699 C 105.558 367.943,105.735 368.136,105.996 368.127 C 107.693 368.071,109.034 368.287,108.849 368.586 C 108.569 369.039,109.553 369.412,111.025 369.412 C 111.661 369.412,112.270 369.642,112.378 369.924 C 112.486 370.206,113.296 370.479,114.177 370.531 C 115.058 370.583,116.036 370.882,116.349 371.195 C 116.671 371.517,117.655 371.765,118.614 371.765 C 119.758 371.765,120.382 371.956,120.534 372.353 C 120.697 372.778,121.362 372.941,122.929 372.941 C 124.596 372.941,125.098 373.077,125.098 373.529 C 125.098 373.982,125.602 374.118,127.283 374.118 C 128.702 374.118,129.674 374.324,130.056 374.706 C 130.455 375.105,131.444 375.294,133.133 375.294 C 134.775 375.294,135.676 375.461,135.784 375.784 C 135.896 376.120,137.176 376.318,139.836 376.411 C 142.649 376.510,143.812 376.700,144.039 377.097 C 144.525 377.950,181.639 377.913,182.493 377.059 C 182.934 376.618,184.019 376.471,186.815 376.471 C 189.576 376.471,190.631 376.330,190.863 375.930 C 191.065 375.582,192.146 375.329,193.897 375.220 C 195.516 375.120,196.680 374.863,196.772 374.585 C 196.864 374.309,197.707 374.118,198.828 374.118 C 199.994 374.118,200.956 373.890,201.317 373.529 C 201.699 373.147,202.670 372.941,204.090 372.941 C 205.770 372.941,206.275 372.805,206.275 372.353 C 206.275 371.910,206.748 371.765,208.187 371.765 C 209.409 371.765,210.276 371.552,210.588 371.176 C 210.886 370.818,211.746 370.588,212.793 370.588 C 214.058 370.588,214.510 370.433,214.510 370.000 C 214.510 369.613,214.897 369.412,215.644 369.412 C 216.291 369.412,216.876 369.159,217.005 368.824 C 217.147 368.453,217.747 368.235,218.627 368.235 C 219.508 368.235,220.108 368.018,220.250 367.647 C 220.396 367.268,221.003 367.059,221.961 367.059 C 222.919 367.059,223.526 366.850,223.671 366.471 C 223.803 366.127,224.391 365.882,225.086 365.882 C 225.816 365.882,226.237 365.697,226.176 365.401 C 226.123 365.137,226.520 364.860,227.059 364.785 C 227.598 364.711,228.232 364.403,228.467 364.101 C 228.702 363.799,229.456 363.509,230.143 363.456 C 230.974 363.393,231.327 363.193,231.198 362.857 C 231.068 362.518,231.377 362.353,232.141 362.353 C 232.766 362.353,233.543 362.087,233.868 361.762 C 234.193 361.438,234.899 361.136,235.437 361.091 C 236.326 361.017,236.618 360.498,236.051 360.000 C 235.929 359.892,235.428 358.967,234.939 357.943 C 234.450 356.920,233.889 355.983,233.692 355.861 C 233.495 355.740,233.333 355.312,233.333 354.911 C 233.333 354.511,233.182 354.124,232.996 354.052 C 232.811 353.980,232.005 352.598,231.205 350.980 C 230.406 349.363,229.041 346.716,228.172 345.098 C 227.304 343.480,225.716 340.480,224.645 338.431 C 223.573 336.382,221.837 333.118,220.787 331.176 C 219.737 329.235,218.144 326.235,217.248 324.510 C 216.352 322.784,214.756 319.784,213.701 317.843 C 212.647 315.902,211.679 314.049,211.550 313.725 C 211.421 313.402,211.159 312.873,210.967 312.549 C 210.775 312.225,210.227 311.211,209.749 310.294 C 209.271 309.377,208.857 308.627,208.829 308.627 C 208.800 308.627,207.552 309.227,206.055 309.961 C 204.558 310.694,202.186 311.761,200.784 312.331 C 199.382 312.902,197.882 313.518,197.451 313.702 C 195.704 314.443,191.366 315.785,186.863 316.977 C 168.981 321.708,145.425 320.276,129.496 313.490 C 128.788 313.188,128.042 312.941,127.837 312.941 C 126.411 312.941,109.881 304.048,109.477 303.063 C 109.405 302.888,109.141 302.740,108.889 302.735 C 108.485 302.725,106.790 301.443,100.984 296.754 C 95.515 292.336,86.579 282.118,85.838 279.432 C 85.590 278.535,85.216 278.038,84.785 278.036 C 84.418 278.035,83.719 277.373,83.231 276.566 C 82.744 275.758,82.126 274.752,81.859 274.329 C 80.436 272.077,79.415 270.217,77.601 266.575 C 76.498 264.361,75.449 262.196,75.270 261.765 C 74.361 259.577,72.348 254.314,72.006 253.235 C 71.734 252.374,69.709 252.307,69.020 253.137 C 68.626 253.612,67.059 254.004,67.059 253.627 C 67.059 253.573,67.350 252.294,67.706 250.784 C 68.550 247.200,68.853 238.482,68.213 236.195 C 67.949 235.253,67.626 231.444,67.494 227.731 L 67.255 220.980 66.408 221.765 M248.740 226.863 C 248.743 227.941,248.819 228.336,248.909 227.740 C 248.999 227.144,248.997 226.261,248.904 225.779 C 248.810 225.297,248.737 225.784,248.740 226.863 M78.138 227.255 C 78.142 228.118,78.223 228.424,78.317 227.937 C 78.410 227.449,78.407 226.743,78.309 226.368 C 78.211 225.993,78.134 226.392,78.138 227.255 M92.941 264.510 C 93.673 265.265,94.360 265.882,94.468 265.882 C 94.575 265.882,94.065 265.265,93.333 264.510 C 92.602 263.755,91.915 263.137,91.807 263.137 C 91.699 263.137,92.209 263.755,92.941 264.510 M231.544 266.765 L 230.392 268.039 231.667 266.887 C 232.368 266.254,232.941 265.680,232.941 265.613 C 232.941 265.310,232.618 265.577,231.544 266.765 " stroke="none" fill="#c8172d" fill-rule="evenodd"></path><path id="path2" d="M163.137 59.412 C 163.137 59.920,161.744 60.000,152.953 60.000 C 144.062 60.000,142.798 60.075,142.995 60.588 C 143.187 61.087,142.621 61.176,139.270 61.176 C 136.109 61.176,135.359 61.283,135.522 61.707 C 135.680 62.117,135.121 62.255,133.064 62.311 C 130.042 62.394,128.627 62.671,128.627 63.180 C 128.627 63.372,127.569 63.529,126.275 63.529 C 124.444 63.529,123.922 63.660,123.922 64.118 C 123.922 64.561,123.445 64.706,121.989 64.706 C 120.794 64.706,119.832 64.930,119.468 65.294 C 119.138 65.624,118.179 65.882,117.283 65.882 C 116.125 65.882,115.686 66.044,115.686 66.471 C 115.686 66.906,115.229 67.059,113.922 67.059 C 112.614 67.059,112.157 67.211,112.157 67.647 C 112.157 68.083,111.699 68.235,110.392 68.235 C 109.085 68.235,108.627 68.388,108.627 68.824 C 108.627 69.249,108.190 69.412,107.047 69.412 C 106.003 69.412,105.389 69.612,105.240 70.000 C 105.116 70.324,104.586 70.588,104.063 70.588 C 103.540 70.588,103.025 70.817,102.917 71.097 C 102.810 71.377,102.071 71.650,101.275 71.703 C 100.479 71.757,99.732 71.955,99.616 72.144 C 99.499 72.332,98.920 72.608,98.329 72.757 C 97.738 72.905,97.255 73.184,97.255 73.376 C 97.255 73.568,96.808 73.725,96.262 73.725 C 95.716 73.725,95.168 73.990,95.044 74.314 C 94.920 74.637,94.390 74.902,93.867 74.902 C 93.344 74.902,92.815 75.167,92.691 75.490 C 92.562 75.826,91.977 76.078,91.331 76.078 C 90.584 76.078,90.196 76.279,90.196 76.667 C 90.196 77.035,89.824 77.255,89.203 77.255 C 88.657 77.255,88.109 77.520,87.985 77.843 C 87.861 78.167,87.438 78.431,87.045 78.431 C 86.652 78.431,86.096 78.666,85.808 78.953 C 85.521 79.241,84.803 79.597,84.212 79.745 C 83.621 79.894,83.137 80.188,83.137 80.400 C 83.137 80.611,82.873 80.784,82.549 80.784 C 82.225 80.784,81.961 81.049,81.961 81.373 C 81.961 81.741,81.589 81.961,80.968 81.961 C 80.422 81.961,79.874 82.225,79.750 82.549 C 79.626 82.873,79.096 83.137,78.573 83.137 C 78.050 83.137,77.521 83.402,77.397 83.725 C 77.273 84.049,76.925 84.314,76.625 84.314 C 76.324 84.314,76.078 84.556,76.078 84.853 C 76.078 85.150,75.537 85.500,74.876 85.633 C 74.208 85.766,73.782 86.049,73.919 86.270 C 74.054 86.488,73.883 86.667,73.540 86.667 C 73.197 86.667,72.815 86.931,72.691 87.255 C 72.567 87.578,72.043 87.843,71.527 87.843 C 70.954 87.843,70.588 88.072,70.588 88.431 C 70.588 88.755,70.318 89.020,69.988 89.020 C 69.657 89.020,69.286 89.284,69.161 89.608 C 69.037 89.931,68.695 90.196,68.402 90.196 C 68.088 90.196,67.961 90.439,68.093 90.784 C 68.259 91.216,68.043 91.373,67.285 91.373 C 66.715 91.373,66.148 91.637,66.024 91.961 C 65.900 92.284,65.553 92.549,65.252 92.549 C 64.952 92.549,64.706 92.814,64.706 93.137 C 64.706 93.461,64.441 93.725,64.118 93.725 C 63.794 93.725,63.529 93.990,63.529 94.314 C 63.529 94.641,63.181 94.902,62.745 94.902 C 62.314 94.902,62.005 95.123,62.059 95.392 C 62.114 95.668,61.685 95.937,61.078 96.006 C 60.461 96.077,60.000 96.371,60.000 96.693 C 60.000 97.002,59.735 97.255,59.412 97.255 C 59.088 97.255,58.824 97.520,58.824 97.843 C 58.824 98.167,58.559 98.431,58.235 98.431 C 57.912 98.431,57.647 98.696,57.647 99.020 C 57.647 99.343,57.382 99.608,57.059 99.608 C 56.735 99.608,56.471 99.873,56.471 100.196 C 56.471 100.520,56.206 100.784,55.882 100.784 C 55.559 100.784,55.294 101.049,55.294 101.373 C 55.294 101.696,55.029 101.961,54.706 101.961 C 54.382 101.961,54.118 102.225,54.118 102.549 C 54.118 102.873,53.853 103.137,53.529 103.137 C 53.206 103.137,52.941 103.402,52.941 103.725 C 52.941 104.049,52.676 104.314,52.353 104.314 C 52.029 104.314,51.765 104.578,51.765 104.902 C 51.765 105.225,51.500 105.490,51.176 105.490 C 50.853 105.490,50.588 105.755,50.588 106.078 C 50.588 106.402,50.324 106.667,50.000 106.667 C 49.676 106.667,49.412 106.931,49.412 107.255 C 49.412 107.578,49.218 107.843,48.981 107.843 C 47.961 107.843,39.674 116.859,39.912 117.711 C 39.971 117.923,39.837 117.985,39.615 117.847 C 39.392 117.710,39.089 117.917,38.940 118.308 C 38.791 118.700,38.175 119.456,37.570 119.989 C 36.965 120.523,36.471 121.195,36.471 121.483 C 36.471 121.771,36.313 121.910,36.120 121.791 C 35.928 121.671,35.651 122.049,35.505 122.630 C 35.359 123.211,34.811 124.083,34.287 124.569 C 33.762 125.055,33.333 125.562,33.333 125.696 C 33.333 125.829,33.069 126.203,32.745 126.527 C 32.422 126.850,32.157 127.455,32.157 127.871 C 32.157 128.287,31.892 128.627,31.569 128.627 C 31.245 128.627,30.980 128.892,30.980 129.216 C 30.980 129.539,30.716 129.804,30.392 129.804 C 30.000 129.804,29.804 130.196,29.804 130.980 C 29.804 131.765,29.608 132.157,29.216 132.157 C 28.889 132.157,28.627 132.505,28.627 132.941 C 28.627 133.373,28.407 133.681,28.137 133.627 C 27.862 133.572,27.593 134.001,27.523 134.608 C 27.452 135.225,27.158 135.686,26.837 135.686 C 26.473 135.686,26.275 136.103,26.275 136.863 C 26.275 137.647,26.078 138.039,25.686 138.039 C 25.363 138.039,25.098 138.382,25.098 138.800 C 25.098 139.219,24.894 139.687,24.645 139.841 C 24.346 140.027,24.300 139.948,24.510 139.608 C 24.720 139.268,24.674 139.189,24.374 139.374 C 24.125 139.528,23.922 140.085,23.922 140.611 C 23.922 141.201,23.696 141.569,23.333 141.569 C 22.941 141.569,22.745 141.961,22.745 142.745 C 22.745 143.529,22.549 143.922,22.157 143.922 C 21.789 143.922,21.569 144.293,21.569 144.914 C 21.569 145.460,21.304 146.009,20.980 146.133 C 20.657 146.257,20.392 146.762,20.392 147.255 C 20.392 147.748,20.127 148.253,19.804 148.377 C 19.457 148.510,19.216 149.099,19.216 149.815 C 19.216 150.532,19.054 150.927,18.819 150.781 C 18.598 150.645,18.313 151.083,18.175 151.772 C 18.039 152.452,17.688 153.101,17.395 153.213 C 17.076 153.335,16.863 154.013,16.863 154.902 C 16.863 155.860,16.654 156.467,16.275 156.612 C 15.951 156.737,15.686 157.266,15.686 157.789 C 15.686 158.312,15.422 158.841,15.098 158.965 C 14.713 159.113,14.510 159.724,14.510 160.730 C 14.510 161.736,14.306 162.347,13.922 162.495 C 13.574 162.628,13.333 163.217,13.333 163.932 C 13.333 164.599,13.175 165.047,12.982 164.927 C 12.477 164.615,12.157 165.683,12.157 167.679 C 12.157 168.958,12.003 169.412,11.569 169.412 C 11.133 169.412,10.980 169.869,10.980 171.176 C 10.980 172.484,10.828 172.941,10.392 172.941 C 9.959 172.941,9.804 173.394,9.804 174.664 C 9.804 175.727,9.606 176.463,9.288 176.585 C 8.968 176.707,8.735 177.582,8.676 178.877 C 8.623 180.029,8.354 181.238,8.077 181.564 C 7.801 181.890,7.532 183.110,7.480 184.276 C 7.428 185.465,7.143 186.639,6.830 186.951 C 6.466 187.316,6.275 188.375,6.275 190.028 C 6.275 191.541,6.108 192.549,5.859 192.549 C 5.631 192.549,5.545 192.713,5.670 192.914 C 5.794 193.115,5.716 193.390,5.497 193.525 C 5.268 193.667,5.098 195.500,5.098 197.818 C 5.098 200.937,4.963 201.977,4.510 202.353 C 3.654 203.063,3.621 234.557,4.476 235.266 C 4.876 235.598,5.066 236.937,5.162 240.086 C 5.254 243.127,5.442 244.495,5.784 244.608 C 6.118 244.719,6.275 245.701,6.275 247.680 C 6.275 250.004,6.393 250.588,6.863 250.588 C 7.371 250.588,7.784 253.968,7.497 255.784 C 7.472 255.946,7.716 256.078,8.039 256.078 C 8.551 256.078,8.944 258.832,8.670 260.501 C 8.643 260.669,8.887 260.908,9.212 261.033 C 9.615 261.188,9.804 261.809,9.804 262.983 C 9.804 264.253,9.959 264.706,10.392 264.706 C 10.814 264.706,10.980 265.136,10.980 266.226 C 10.980 267.100,11.231 267.955,11.569 268.235 C 11.892 268.504,12.157 269.060,12.157 269.472 C 12.157 272.038,13.367 271.046,21.307 261.969 C 23.284 259.708,25.167 257.578,25.490 257.234 C 26.235 256.443,28.082 254.370,31.569 250.411 C 33.078 248.697,34.578 247.007,34.902 246.655 C 36.306 245.130,40.383 240.473,41.415 239.216 C 42.035 238.461,42.985 237.382,43.526 236.817 C 45.370 234.895,47.644 232.350,49.608 230.013 C 50.686 228.729,51.973 227.241,52.466 226.706 C 53.535 225.550,53.338 225.385,50.105 224.722 C 48.868 224.468,47.755 224.096,47.631 223.895 C 47.506 223.694,47.160 223.529,46.861 223.529 C 44.467 223.529,37.132 217.203,33.942 212.386 C 20.349 191.865,31.638 167.352,54.706 167.301 C 64.329 167.279,73.817 175.834,74.595 185.234 C 74.692 186.405,75.686 185.642,75.686 184.397 C 75.686 184.094,75.928 183.378,76.223 182.806 C 76.519 182.233,77.119 181.059,77.557 180.196 C 80.133 175.121,84.182 168.601,86.566 165.686 C 86.742 165.471,87.931 163.971,89.207 162.353 C 91.697 159.196,98.829 151.929,101.329 150.000 C 102.168 149.353,103.050 148.636,103.290 148.406 C 106.755 145.089,117.156 138.746,124.432 135.513 C 125.684 134.957,126.600 134.327,126.468 134.114 C 126.149 133.597,120.996 133.634,119.020 134.167 C 112.967 135.799,113.107 134.562,119.216 132.434 C 122.241 131.380,125.560 130.682,128.924 130.393 C 135.254 129.848,131.847 129.020,123.276 129.020 C 120.827 129.020,118.824 128.887,118.824 128.725 C 118.830 126.873,141.445 125.734,143.314 127.493 C 143.824 127.973,146.667 127.937,146.667 127.451 C 146.667 127.235,146.177 127.059,145.577 127.059 C 144.978 127.059,144.119 126.800,143.668 126.484 C 143.216 126.168,142.074 125.715,141.129 125.479 C 140.185 125.242,138.353 124.781,137.059 124.455 C 135.765 124.129,133.439 123.655,131.892 123.401 C 128.255 122.807,128.055 122.527,130.848 121.948 C 134.886 121.109,146.707 122.318,152.578 124.169 C 154.340 124.725,155.891 124.570,155.465 123.880 C 155.345 123.687,154.856 123.529,154.378 123.529 C 153.899 123.529,153.160 123.290,152.734 122.998 C 151.823 122.372,147.321 120.784,146.457 120.784 C 146.127 120.784,145.756 120.520,145.632 120.196 C 145.470 119.774,144.782 119.601,143.193 119.583 C 141.376 119.563,141.148 119.491,141.920 119.182 C 142.436 118.976,143.169 118.905,143.549 119.026 C 143.928 119.146,146.064 119.493,148.296 119.798 C 153.811 120.549,160.258 121.991,162.608 122.999 C 163.288 123.291,164.170 123.535,164.569 123.542 C 164.968 123.549,165.637 123.813,166.055 124.130 C 166.474 124.447,167.097 124.706,167.439 124.706 C 167.781 124.706,169.441 125.412,171.128 126.275 C 172.930 127.196,174.746 127.843,175.529 127.843 C 177.082 127.843,177.310 127.186,175.882 126.828 C 175.343 126.692,174.902 126.424,174.902 126.232 C 174.902 126.040,174.741 125.882,174.545 125.882 C 174.240 125.882,172.972 125.333,167.255 122.724 C 165.015 121.702,159.048 119.608,158.375 119.608 C 157.914 119.608,157.708 119.434,157.866 119.179 C 158.018 118.933,158.740 118.832,159.556 118.942 C 161.664 119.225,166.610 120.217,168.627 120.760 C 169.598 121.022,171.451 121.512,172.745 121.851 C 174.039 122.189,176.333 122.895,177.843 123.419 C 179.353 123.944,180.941 124.465,181.373 124.578 C 181.804 124.691,182.713 125.031,183.393 125.333 C 184.072 125.635,184.738 125.882,184.871 125.882 C 185.915 125.882,194.573 130.709,196.648 132.447 C 197.688 133.318,199.207 134.089,203.529 135.941 C 215.654 141.135,230.342 152.629,238.535 163.333 C 239.855 165.059,241.034 166.559,241.154 166.667 C 242.274 167.672,247.266 176.000,249.850 181.176 C 251.138 183.756,252.183 185.434,252.293 185.098 C 256.208 173.031,262.518 167.360,272.121 167.277 L 276.667 167.238 277.144 165.783 C 277.407 164.982,277.797 162.516,278.010 160.301 C 278.224 158.086,278.661 154.422,278.981 152.157 C 279.302 149.892,279.841 146.034,280.178 143.583 C 280.515 141.133,280.879 138.750,280.986 138.289 C 281.093 137.828,281.351 136.039,281.560 134.314 C 281.770 132.588,282.216 129.235,282.553 126.863 C 282.890 124.490,283.335 121.137,283.542 119.412 C 283.749 117.686,284.025 115.833,284.157 115.294 C 284.288 114.755,284.633 112.461,284.923 110.196 C 285.420 106.309,285.705 104.252,287.256 93.333 C 288.355 85.596,289.019 80.698,289.382 77.647 C 289.574 76.029,289.918 73.647,290.146 72.353 C 290.761 68.853,291.469 63.973,291.666 61.863 L 291.840 60.000 278.893 60.000 C 266.257 60.000,264.482 59.895,264.927 59.175 C 265.055 58.969,244.063 58.824,214.141 58.824 C 169.066 58.824,163.137 58.892,163.137 59.412 M155.882 125.098 C 156.016 125.314,156.555 125.490,157.082 125.490 C 157.608 125.490,158.039 125.314,158.039 125.098 C 158.039 124.882,157.499 124.706,156.840 124.706 C 156.140 124.706,155.741 124.869,155.882 125.098 M158.431 126.275 C 158.431 126.490,158.873 126.667,159.412 126.667 C 159.951 126.667,160.392 126.490,160.392 126.275 C 160.392 126.059,159.951 125.882,159.412 125.882 C 158.873 125.882,158.431 126.059,158.431 126.275 " stroke="none" fill="#ddd204" fill-rule="evenodd"></path><path id="path3" d="M125.686 160.807 C 108.443 162.207,91.577 176.124,83.413 195.686 C 78.310 207.916,76.834 225.296,79.834 237.843 C 80.811 241.929,81.649 244.861,82.206 246.138 C 82.503 246.817,82.745 247.507,82.745 247.670 C 82.745 247.832,83.635 249.747,84.722 251.924 C 86.563 255.610,87.201 256.779,87.940 257.822 C 91.856 263.349,95.929 267.536,100.360 270.588 C 104.638 273.536,104.387 273.839,98.427 272.914 C 91.021 271.765,84.637 275.081,85.843 279.451 C 86.580 282.119,95.535 292.353,100.984 296.754 C 106.790 301.443,108.485 302.725,108.889 302.735 C 109.141 302.740,109.405 302.888,109.477 303.063 C 109.881 304.048,126.411 312.941,127.837 312.941 C 128.042 312.941,128.788 313.188,129.496 313.490 C 145.425 320.276,168.981 321.708,186.863 316.977 C 191.366 315.785,195.704 314.443,197.451 313.702 C 197.882 313.518,199.382 312.899,200.784 312.326 C 207.651 309.517,216.078 304.640,221.933 300.087 C 231.471 292.669,241.569 281.584,241.569 278.531 C 241.569 274.428,235.378 271.917,227.880 272.979 C 224.331 273.481,222.017 273.219,223.829 272.521 C 224.317 272.332,224.934 271.992,225.201 271.764 C 225.468 271.536,226.657 270.642,227.843 269.778 C 234.522 264.913,244.314 251.585,244.314 247.360 C 244.314 247.065,244.469 246.656,244.658 246.451 C 245.993 245.007,248.287 233.522,248.806 225.686 C 249.134 220.718,248.093 210.683,246.710 205.490 C 246.279 203.873,245.716 201.755,245.458 200.784 C 245.201 199.814,244.838 198.852,244.652 198.647 C 244.466 198.442,244.314 198.028,244.314 197.726 C 244.314 197.123,243.716 195.715,241.700 191.569 C 240.187 188.457,240.173 188.433,237.303 184.137 C 224.972 165.677,202.878 156.058,187.255 162.348 C 183.114 164.015,181.938 164.576,179.669 165.963 C 174.208 169.303,170.757 172.500,166.319 178.333 C 163.337 182.253,163.664 182.239,160.941 178.556 C 151.706 166.069,139.092 159.719,125.686 160.807 M50.784 167.411 C 32.003 170.219,23.152 188.393,31.187 207.647 C 33.706 213.682,43.389 223.529,46.805 223.529 C 47.074 223.529,47.462 223.694,47.667 223.895 C 48.047 224.268,52.089 225.383,54.440 225.764 C 56.515 226.100,63.215 224.318,65.037 222.946 C 67.287 221.252,67.451 220.913,67.451 217.943 C 67.451 216.361,67.716 214.050,68.039 212.808 C 68.363 211.566,68.634 209.632,68.641 208.510 C 68.649 207.388,68.907 206.029,69.216 205.490 C 69.524 204.951,69.782 203.705,69.790 202.722 C 69.798 201.739,70.063 200.592,70.380 200.173 C 70.696 199.754,70.963 198.794,70.973 198.039 C 70.994 196.420,73.025 189.884,74.176 187.733 C 75.448 185.357,73.384 179.636,69.298 174.213 C 65.199 168.773,58.395 166.273,50.784 167.411 M268.431 167.447 C 262.053 168.442,255.885 174.719,252.949 183.206 C 252.043 185.822,252.068 186.002,253.933 190.392 C 255.128 193.207,256.072 196.786,256.841 201.420 C 257.024 202.525,257.368 203.793,257.606 204.238 C 257.844 204.683,258.041 205.896,258.044 206.935 C 258.046 207.974,258.306 209.790,258.620 210.972 C 258.935 212.154,259.309 214.813,259.451 216.881 C 259.760 221.370,259.911 221.612,263.376 223.193 C 268.405 225.486,277.018 225.884,278.989 223.913 C 279.200 223.702,279.646 223.529,279.980 223.529 C 284.284 223.529,295.289 211.371,296.668 205.093 C 296.808 204.454,297.086 203.830,297.285 203.707 C 297.484 203.584,297.647 203.061,297.647 202.545 C 297.647 202.029,297.912 200.591,298.235 199.349 C 300.120 192.113,297.940 182.186,293.246 176.627 C 290.572 173.460,283.170 168.627,280.993 168.627 C 280.641 168.627,279.820 168.351,279.167 168.014 C 277.793 167.304,271.486 166.971,268.431 167.447 M128.773 206.675 C 131.486 209.057,131.667 214.490,129.127 217.302 C 125.744 221.046,120.784 217.987,120.784 212.157 C 120.784 206.682,125.273 203.602,128.773 206.675 M204.317 207.014 C 205.754 208.525,206.277 209.939,206.272 212.304 C 206.259 220.048,197.498 221.409,196.283 213.856 C 195.239 207.363,200.437 202.936,204.317 207.014 M151.650 242.843 C 153.726 245.114,154.166 247.178,152.912 248.771 C 151.013 251.185,147.009 247.584,147.592 243.987 C 147.948 241.795,150.130 241.180,151.650 242.843 M178.978 242.581 C 180.498 246.542,176.418 251.660,174.095 248.706 C 172.925 247.218,173.411 245.067,175.419 242.843 C 176.371 241.788,178.610 241.623,178.978 242.581 M121.924 274.789 C 122.699 275.374,123.840 276.352,124.460 276.964 C 132.076 284.479,146.990 286.870,156.600 282.118 C 157.211 281.816,157.872 281.569,158.070 281.569 C 158.268 281.569,159.563 281.033,160.949 280.378 L 163.468 279.188 165.988 280.378 C 167.374 281.033,168.755 281.574,169.058 281.581 C 169.360 281.588,169.950 281.853,170.369 282.169 C 170.788 282.486,171.591 282.745,172.153 282.745 C 172.716 282.745,173.344 282.905,173.549 283.100 C 175.348 284.816,188.464 284.880,192.353 283.192 C 197.286 281.051,200.272 279.172,203.276 276.319 C 204.324 275.324,205.324 274.510,205.499 274.510 C 205.674 274.510,205.896 274.289,205.992 274.020 C 206.088 273.750,206.301 273.654,206.465 273.806 C 207.719 274.972,199.711 283.432,195.294 285.607 C 189.194 288.610,180.957 289.574,174.798 288.004 C 171.206 287.089,168.120 286.188,167.451 285.859 C 167.127 285.701,166.113 285.261,165.196 284.883 C 163.471 284.170,162.815 284.285,159.608 285.859 C 158.938 286.188,155.853 287.089,152.261 288.004 C 141.393 290.774,129.250 286.550,122.639 277.699 C 119.622 273.659,119.439 272.914,121.924 274.789 " stroke="none" fill="#fbbc96" fill-rule="evenodd"></path><path id="path4" d="M162.059 59.083 C 161.290 59.393,161.485 60.000,162.353 60.000 C 162.789 60.000,163.137 59.739,163.137 59.412 C 163.137 58.807,162.912 58.739,162.059 59.083 M278.235 59.208 C 270.669 59.320,264.950 59.550,265.490 59.720 C 266.758 60.119,290.994 59.787,295.098 59.315 L 298.235 58.953 295.098 58.979 C 293.373 58.993,285.784 59.096,278.235 59.208 M141.765 119.207 C 141.189 119.461,141.569 119.560,143.193 119.580 C 144.780 119.600,145.470 119.774,145.632 120.196 C 145.756 120.520,146.127 120.784,146.457 120.784 C 147.321 120.784,151.823 122.372,152.734 122.998 C 153.160 123.290,153.899 123.529,154.378 123.529 C 154.856 123.529,155.345 123.687,155.465 123.880 C 155.891 124.570,154.340 124.725,152.578 124.169 C 146.707 122.318,134.886 121.109,130.848 121.948 C 128.055 122.527,128.255 122.807,131.892 123.401 C 133.439 123.655,135.765 124.129,137.059 124.455 C 138.353 124.781,140.185 125.242,141.129 125.479 C 142.074 125.715,143.216 126.168,143.668 126.484 C 144.119 126.800,144.978 127.059,145.577 127.059 C 146.177 127.059,146.667 127.235,146.667 127.451 C 146.667 127.937,143.824 127.973,143.314 127.493 C 141.445 125.734,118.830 126.873,118.824 128.725 C 118.824 128.887,120.827 129.020,123.276 129.020 C 131.847 129.020,135.254 129.848,128.924 130.393 C 124.499 130.774,120.505 131.781,115.980 133.658 C 112.969 134.908,115.007 135.249,119.020 134.167 C 120.996 133.634,126.149 133.597,126.468 134.114 C 126.600 134.327,125.684 134.957,124.432 135.513 C 117.156 138.746,106.755 145.089,103.290 148.406 C 103.050 148.636,102.168 149.353,101.329 150.000 C 98.829 151.929,91.697 159.196,89.207 162.353 C 87.931 163.971,86.742 165.471,86.566 165.686 C 82.705 170.406,77.472 179.614,75.087 185.882 C 74.718 186.853,74.265 188.000,74.081 188.431 C 73.519 189.749,72.512 192.678,72.191 193.931 C 72.024 194.583,71.683 195.498,71.434 195.964 C 71.184 196.430,70.974 197.396,70.966 198.111 C 70.959 198.827,70.700 199.853,70.392 200.392 C 70.084 200.931,69.825 202.134,69.818 203.065 C 69.810 203.996,69.586 205.143,69.320 205.614 C 69.054 206.085,68.719 207.882,68.575 209.608 C 68.432 211.333,68.128 213.539,67.900 214.510 C 67.349 216.854,67.369 230.015,67.929 233.725 C 68.642 238.443,68.546 247.153,67.745 250.588 C 67.368 252.206,67.059 253.574,67.059 253.627 C 67.058 254.004,68.626 253.612,69.020 253.137 C 69.709 252.307,71.734 252.374,72.006 253.235 C 72.348 254.314,74.361 259.577,75.270 261.765 C 75.449 262.196,76.498 264.361,77.601 266.575 C 79.415 270.217,80.436 272.077,81.859 274.329 C 82.126 274.752,82.744 275.758,83.231 276.566 C 84.373 278.456,85.168 278.427,86.034 276.465 C 87.434 273.292,93.898 271.738,100.566 272.970 C 102.189 273.270,102.965 273.270,103.265 272.970 C 103.565 272.670,103.543 272.549,103.186 272.549 C 101.466 272.549,89.412 261.561,89.412 259.992 C 89.412 259.817,89.269 259.614,89.095 259.542 C 88.730 259.392,85.166 253.416,84.222 251.373 C 74.335 229.970,76.602 203.058,89.948 183.389 C 96.038 174.414,108.216 164.662,115.518 162.912 C 116.150 162.761,116.843 162.501,117.059 162.335 C 117.275 162.169,118.510 161.824,119.804 161.567 C 121.098 161.311,122.863 160.949,123.725 160.764 C 125.745 160.329,131.895 160.328,133.922 160.762 C 134.784 160.946,136.410 161.286,137.533 161.516 C 138.657 161.746,139.892 162.099,140.278 162.300 C 140.665 162.500,141.775 162.985,142.745 163.377 C 148.786 165.817,156.393 172.111,161.176 178.627 C 163.772 182.163,163.274 182.168,165.882 178.579 C 168.237 175.339,176.137 167.451,177.027 167.451 C 177.332 167.451,177.641 167.312,177.712 167.141 C 178.264 165.836,186.421 162.186,191.176 161.117 C 194.065 160.468,203.142 160.419,205.294 161.042 C 213.323 163.363,216.006 164.456,220.378 167.183 C 227.550 171.658,235.885 180.425,239.832 187.647 C 241.125 190.011,243.126 194.146,243.723 195.686 C 244.100 196.657,244.562 197.804,244.750 198.235 C 245.674 200.355,247.274 206.901,248.247 212.549 C 248.971 216.748,249.178 226.101,248.629 229.813 C 248.358 231.641,248.014 234.108,247.864 235.294 C 247.714 236.480,247.371 238.245,247.102 239.216 C 245.870 243.666,244.958 246.501,244.650 246.843 C 244.465 247.048,244.310 247.489,244.305 247.824 C 244.268 250.307,237.412 261.074,233.164 265.319 C 230.171 268.310,224.748 272.549,223.913 272.549 C 223.702 272.549,223.529 272.749,223.529 272.992 C 223.529 273.291,224.011 273.349,225.000 273.171 C 235.739 271.234,243.718 274.666,241.168 280.124 C 240.810 280.891,240.820 280.905,241.267 280.252 C 241.541 279.852,242.325 278.776,243.011 277.862 C 243.696 276.948,245.076 274.805,246.078 273.100 C 247.080 271.395,248.056 269.735,248.248 269.412 C 248.839 268.416,252.157 261.568,252.157 261.344 C 252.157 261.228,252.493 260.393,252.905 259.488 C 253.316 258.583,254.009 256.784,254.445 255.490 C 255.569 252.152,255.908 252.013,258.738 253.728 C 260.367 254.715,260.692 254.138,259.880 251.703 C 259.101 249.369,258.289 242.543,258.535 240.392 C 258.722 238.755,259.208 233.484,259.964 224.902 C 260.135 222.961,260.148 221.196,259.992 220.980 C 259.836 220.765,259.589 218.896,259.443 216.827 C 259.297 214.758,258.923 212.111,258.613 210.945 C 258.303 209.778,258.046 207.932,258.044 206.843 C 258.041 205.754,257.851 204.674,257.620 204.444 C 257.390 204.213,257.043 203.075,256.850 201.914 C 256.390 199.144,255.551 195.591,255.241 195.098 C 255.105 194.882,254.869 194.120,254.715 193.405 C 254.562 192.689,254.189 191.631,253.887 191.052 C 253.585 190.473,253.337 189.702,253.336 189.337 C 253.334 188.972,253.170 188.573,252.971 188.450 C 252.772 188.327,252.484 187.655,252.332 186.956 C 251.656 183.869,243.182 168.486,241.154 166.667 C 241.034 166.559,239.855 165.059,238.535 163.333 C 230.342 152.629,215.654 141.135,203.529 135.941 C 199.207 134.089,197.688 133.318,196.648 132.447 C 194.573 130.709,185.915 125.882,184.871 125.882 C 184.738 125.882,184.072 125.635,183.393 125.333 C 182.713 125.031,181.804 124.691,181.373 124.578 C 180.941 124.465,179.353 123.944,177.843 123.419 C 176.333 122.895,174.039 122.189,172.745 121.851 C 171.451 121.512,169.598 121.022,168.627 120.760 C 166.610 120.217,161.664 119.225,159.556 118.942 C 158.740 118.832,158.018 118.933,157.866 119.179 C 157.708 119.434,157.914 119.608,158.375 119.608 C 159.048 119.608,165.015 121.702,167.255 122.724 C 172.972 125.333,174.240 125.882,174.545 125.882 C 174.741 125.882,174.902 126.040,174.902 126.232 C 174.902 126.424,175.343 126.692,175.882 126.828 C 177.310 127.186,177.082 127.843,175.529 127.843 C 174.746 127.843,172.930 127.196,171.128 126.275 C 169.441 125.412,167.781 124.706,167.439 124.706 C 167.097 124.706,166.474 124.447,166.055 124.130 C 165.637 123.813,164.968 123.549,164.569 123.542 C 164.170 123.535,163.288 123.291,162.608 122.999 C 160.284 122.002,153.820 120.551,148.431 119.815 C 146.275 119.521,144.069 119.186,143.529 119.071 C 142.990 118.956,142.196 119.017,141.765 119.207 M158.039 125.098 C 158.039 125.314,157.608 125.490,157.082 125.490 C 156.555 125.490,156.016 125.314,155.882 125.098 C 155.741 124.869,156.140 124.706,156.840 124.706 C 157.499 124.706,158.039 124.882,158.039 125.098 M160.392 126.275 C 160.392 126.490,159.951 126.667,159.412 126.667 C 158.873 126.667,158.431 126.490,158.431 126.275 C 158.431 126.059,158.873 125.882,159.412 125.882 C 159.951 125.882,160.392 126.059,160.392 126.275 M123.264 206.424 C 118.717 210.250,120.650 218.824,126.060 218.824 C 130.574 218.824,132.679 210.368,129.035 206.877 C 127.358 205.270,124.867 205.075,123.264 206.424 M199.355 205.859 C 196.485 207.086,195.123 213.300,197.072 216.275 C 199.976 220.706,205.241 219.249,206.117 213.771 C 206.958 208.511,203.263 204.189,199.355 205.859 M322.033 228.320 C 321.483 228.870,321.427 229.412,321.919 229.412 C 322.278 229.412,322.870 228.229,322.630 227.990 C 322.557 227.916,322.288 228.065,322.033 228.320 M148.000 242.946 C 146.036 245.943,150.376 251.229,152.806 248.799 C 153.887 247.718,153.936 247.146,153.119 245.189 C 151.790 242.009,149.322 240.928,148.000 242.946 M175.220 243.064 C 172.823 245.913,173.044 249.412,175.620 249.412 C 178.196 249.412,180.107 245.524,178.978 242.581 C 178.563 241.502,176.288 241.794,175.220 243.064 M120.647 274.510 C 121.187 276.645,128.268 284.307,129.706 284.312 C 129.975 284.313,130.196 284.449,130.196 284.613 C 130.196 284.872,132.535 286.044,135.098 287.070 C 139.732 288.925,152.282 288.901,155.779 287.031 C 156.154 286.831,156.771 286.666,157.152 286.664 C 157.532 286.663,158.284 286.432,158.824 286.150 C 161.865 284.564,163.834 284.146,165.179 284.802 C 167.662 286.014,169.339 286.667,169.967 286.667 C 170.314 286.667,170.905 286.831,171.280 287.031 C 173.813 288.385,185.717 288.949,189.412 287.890 C 194.701 286.374,199.248 283.578,202.697 279.722 C 205.034 277.108,206.875 274.182,206.437 273.778 C 206.288 273.641,206.088 273.750,205.992 274.020 C 205.896 274.289,205.674 274.510,205.499 274.510 C 205.324 274.510,204.324 275.324,203.276 276.319 C 194.455 284.699,180.407 287.188,170.458 282.133 C 169.848 281.822,169.159 281.569,168.928 281.569 C 168.697 281.569,167.398 281.045,166.042 280.404 L 163.577 279.239 160.710 280.452 C 159.133 281.120,157.314 281.895,156.667 282.176 C 148.572 285.691,137.667 285.395,130.865 281.475 C 129.831 280.880,128.890 280.392,128.774 280.392 C 128.502 280.392,125.396 277.867,123.355 275.985 C 122.480 275.179,121.559 274.517,121.307 274.515 C 121.056 274.512,120.748 274.289,120.625 274.020 C 120.501 273.750,120.511 273.971,120.647 274.510 M311.373 276.471 C 311.062 276.663,310.937 276.950,311.096 277.109 C 311.255 277.269,311.592 277.193,311.843 276.941 C 312.436 276.349,312.105 276.018,311.373 276.471 M209.650 308.188 C 208.955 308.957,209.041 309.241,210.972 312.549 C 211.161 312.873,211.421 313.402,211.550 313.725 C 211.679 314.049,212.647 315.902,213.701 317.843 C 214.756 319.784,216.352 322.784,217.248 324.510 C 218.144 326.235,219.737 329.235,220.787 331.176 C 221.837 333.118,223.573 336.382,224.645 338.431 C 225.716 340.480,227.304 343.480,228.172 345.098 C 229.041 346.716,230.406 349.363,231.205 350.980 C 232.005 352.598,232.811 353.980,232.996 354.052 C 233.182 354.124,233.333 354.511,233.333 354.911 C 233.333 355.312,233.504 355.746,233.713 355.875 C 233.922 356.004,234.495 356.985,234.985 358.055 C 235.476 359.125,236.011 360.000,236.174 360.000 C 236.705 360.000,236.455 359.051,235.503 357.451 C 234.989 356.588,233.911 354.559,233.107 352.941 C 232.302 351.324,231.424 349.735,231.156 349.412 C 230.561 348.694,228.093 344.124,222.050 332.549 C 220.868 330.284,219.292 327.321,218.547 325.963 C 216.694 322.584,213.599 316.701,212.379 314.238 C 211.825 313.118,211.195 312.093,210.980 311.960 C 210.764 311.827,210.588 311.434,210.588 311.086 C 210.588 310.738,210.296 310.131,209.939 309.737 C 209.334 309.068,209.338 308.966,210.000 308.235 C 210.390 307.804,210.622 307.451,210.514 307.451 C 210.406 307.451,210.017 307.783,209.650 308.188 M250.196 352.353 C 249.859 352.759,249.844 352.941,250.148 352.941 C 250.390 352.941,250.588 352.778,250.588 352.578 C 250.588 352.378,250.897 352.134,251.275 352.035 C 251.854 351.884,251.861 351.849,251.323 351.810 C 250.971 351.785,250.465 352.029,250.196 352.353 M77.770 353.824 C 78.693 354.670,79.501 354.738,78.816 353.912 C 78.543 353.583,78.229 353.405,78.117 353.517 C 78.006 353.628,77.714 353.588,77.469 353.428 C 77.223 353.268,77.359 353.446,77.770 353.824 M245.737 355.107 C 245.550 355.594,245.651 355.628,246.283 355.289 C 247.192 354.803,247.279 354.510,246.513 354.510 C 246.212 354.510,245.863 354.779,245.737 355.107 M237.827 359.242 C 237.685 359.472,237.663 359.754,237.778 359.869 C 238.059 360.150,238.824 359.655,238.824 359.193 C 238.824 358.691,238.147 358.725,237.827 359.242 M99.608 365.294 C 99.608 365.618,99.843 365.882,100.131 365.882 C 100.418 365.882,100.654 365.618,100.654 365.294 C 100.654 364.971,100.418 364.706,100.131 364.706 C 99.843 364.706,99.608 364.971,99.608 365.294 M217.124 368.497 C 216.749 368.872,216.802 369.412,217.213 369.412 C 217.406 369.412,217.665 369.147,217.789 368.824 C 218.018 368.226,217.601 368.020,217.124 368.497 M124.011 373.407 C 124.254 374.134,125.098 374.255,125.098 373.562 C 125.098 373.221,124.819 372.941,124.477 372.941 C 124.136 372.941,123.926 373.151,124.011 373.407 M143.137 377.059 C 143.406 377.382,143.775 377.647,143.957 377.647 C 144.140 377.647,144.188 377.382,144.063 377.059 C 143.939 376.735,143.570 376.471,143.243 376.471 C 142.760 376.471,142.740 376.580,143.137 377.059 M161.569 378.039 C 161.569 378.255,162.441 378.431,163.506 378.431 C 164.572 378.431,165.553 378.255,165.686 378.039 C 165.837 377.796,165.102 377.647,163.749 377.647 C 162.550 377.647,161.569 377.824,161.569 378.039 " stroke="none" fill="#65381a" fill-rule="evenodd"></path></g></svg>