<svg id="svg" version="1.1" xmlns="http://www.w3.org/2000/svg" xmlns:xlink="http://www.w3.org/1999/xlink" width="400" height="391.62790697674416" viewBox="0, 0, 400,391.62790697674416"><g id="svgg"><path id="path0" d="M186.484 19.248 C 178.763 19.929,168.464 21.541,162.977 22.928 C 161.792 23.228,159.677 23.744,158.276 24.076 C 123.579 32.298,87.493 55.533,64.848 84.231 C 63.573 85.847,62.418 87.258,62.281 87.365 C 62.076 87.527,58.833 92.131,55.934 96.376 C 55.567 96.915,54.737 98.102,54.091 99.014 C 51.576 102.567,41.136 121.754,41.136 122.825 C 41.136 122.948,40.583 124.232,39.906 125.677 C 37.262 131.326,33.509 142.302,31.307 150.833 C 25.198 174.487,23.863 202.107,27.785 223.702 C 28.000 224.887,28.470 227.620,28.830 229.775 C 30.152 237.692,34.607 253.434,37.051 258.825 C 37.358 259.504,37.610 260.253,37.610 260.489 C 37.610 260.725,38.115 262.021,38.732 263.368 C 39.349 264.715,40.089 266.435,40.378 267.189 C 41.358 269.754,49.278 285.298,50.255 286.576 C 50.422 286.795,51.108 287.855,51.778 288.932 C 52.449 290.010,53.502 291.625,54.119 292.522 C 54.735 293.420,55.240 294.324,55.240 294.531 C 55.240 294.739,55.489 295.115,55.792 295.368 C 56.096 295.620,57.328 297.272,58.529 299.039 C 66.739 311.121,81.788 326.816,94.030 336.064 C 100.602 341.028,106.266 345.034,108.324 346.174 C 108.756 346.413,110.343 347.370,111.851 348.301 C 115.512 350.560,119.367 352.660,123.408 354.598 C 125.240 355.476,128.149 356.872,129.873 357.700 C 134.879 360.107,145.974 364.172,152.400 365.954 C 154.662 366.582,157.395 367.356,158.472 367.674 C 161.590 368.596,173.385 370.881,177.669 371.394 C 179.824 371.652,182.644 372.037,183.937 372.250 C 191.470 373.491,215.350 372.987,225.661 371.370 C 234.782 369.939,236.975 369.512,243.095 367.976 C 245.250 367.434,247.718 366.864,248.580 366.708 C 249.442 366.552,250.588 366.238,251.126 366.011 C 251.665 365.783,254.133 364.952,256.611 364.164 C 260.981 362.773,262.565 362.191,268.756 359.702 C 272.573 358.167,282.241 353.480,286.012 351.337 C 287.638 350.413,289.903 349.128,291.046 348.482 C 292.189 347.835,294.773 346.205,296.787 344.858 C 298.802 343.511,300.555 342.409,300.682 342.409 C 300.810 342.409,301.127 342.235,301.388 342.021 C 301.904 341.597,303.522 340.358,310.088 335.361 C 312.458 333.557,315.015 331.518,315.769 330.831 C 325.072 322.350,330.976 316.478,333.595 313.102 C 334.025 312.546,334.907 311.534,335.553 310.853 C 338.656 307.583,346.712 296.580,350.379 290.603 C 351.207 289.253,352.495 287.179,353.241 285.994 C 355.373 282.608,363.275 266.565,364.625 262.880 C 365.297 261.048,366.230 258.580,366.700 257.395 C 368.057 253.967,370.460 246.525,371.380 242.899 C 371.845 241.068,372.394 238.952,372.601 238.198 C 376.674 223.360,378.722 196.829,377.061 180.411 C 375.889 168.821,373.794 157.222,371.260 148.286 C 367.989 136.756,363.356 124.806,358.526 115.446 C 354.072 106.816,353.629 106.059,346.878 95.590 C 345.211 93.005,342.027 88.676,340.430 86.824 C 339.665 85.937,338.438 84.417,337.704 83.448 C 332.816 76.990,320.778 64.866,313.418 58.990 C 311.371 57.355,309.450 55.811,309.149 55.559 C 300.077 47.965,280.518 36.483,269.581 32.330 C 268.804 32.035,265.617 30.809,262.499 29.607 C 249.985 24.781,233.728 20.902,220.372 19.555 C 215.016 19.015,191.543 18.802,186.484 19.248 M213.712 21.737 C 218.237 22.053,222.556 22.402,223.310 22.513 C 230.346 23.547,237.376 24.811,239.961 25.507 C 241.685 25.971,243.712 26.475,244.466 26.626 C 245.220 26.777,246.454 27.104,247.209 27.352 C 247.963 27.601,250.167 28.255,252.106 28.807 C 268.474 33.465,291.156 44.865,304.047 54.914 C 304.784 55.488,306.797 57.060,308.521 58.407 C 315.316 63.715,325.915 73.701,330.319 78.942 C 331.043 79.804,331.822 80.686,332.050 80.901 C 334.558 83.274,346.327 98.757,346.327 99.684 C 346.327 99.833,346.750 100.516,347.266 101.201 C 352.185 107.732,360.263 124.103,364.894 136.925 C 383.022 187.118,376.542 245.102,347.818 289.716 C 345.076 293.974,341.258 299.523,340.451 300.423 C 340.127 300.783,339.112 302.086,338.194 303.318 C 331.832 311.861,317.494 326.504,310.851 331.244 C 309.551 332.172,306.646 334.557,306.366 334.926 C 306.259 335.068,304.407 336.425,302.253 337.941 C 298.576 340.527,296.972 341.576,287.561 347.544 C 281.080 351.654,270.227 356.736,260.725 360.111 C 249.818 363.985,242.866 365.922,235.064 367.263 C 233.017 367.615,230.460 368.066,229.383 368.265 C 213.153 371.273,191.493 371.279,173.751 368.281 C 162.321 366.350,157.152 365.150,150.833 362.960 C 135.313 357.583,136.080 357.887,126.934 353.476 C 114.526 347.491,98.126 337.191,93.432 332.435 C 92.998 331.995,91.589 330.848,90.301 329.886 C 86.125 326.767,79.369 320.152,73.209 313.150 C 70.222 309.755,68.493 307.671,64.328 302.449 C 61.272 298.616,50.930 283.041,50.930 282.271 C 50.930 282.172,50.313 281.127,49.559 279.948 C 48.805 278.769,48.188 277.726,48.188 277.630 C 48.188 277.534,47.202 275.366,45.996 272.812 C 44.118 268.832,42.630 265.614,41.133 262.292 C 40.797 261.546,39.626 258.262,37.221 251.322 C 35.384 246.021,33.300 239.212,33.300 238.511 C 33.301 238.144,33.034 236.822,32.708 235.572 C 27.798 216.754,26.934 188.682,30.600 167.091 C 32.973 153.114,35.116 145.351,40.657 130.656 C 42.946 124.586,48.934 112.381,51.869 107.801 C 52.861 106.253,53.673 104.896,53.673 104.786 C 53.673 104.004,62.063 91.965,65.949 87.169 C 66.997 85.877,68.820 83.621,70.000 82.158 C 73.078 78.341,85.826 65.603,89.520 62.653 C 91.244 61.276,93.007 59.820,93.438 59.417 C 93.869 59.014,94.662 58.399,95.201 58.051 C 95.739 57.703,96.974 56.767,97.943 55.973 C 103.530 51.394,113.271 45.305,123.604 39.932 C 126.405 38.475,129.664 36.903,130.845 36.437 C 132.027 35.972,133.966 35.142,135.155 34.593 C 144.493 30.284,162.085 25.260,174.535 23.346 C 188.312 21.228,199.718 20.760,213.712 21.737 M247.828 80.433 C 245.907 84.708,241.813 91.147,239.477 93.567 C 239.201 93.854,239.074 94.251,239.197 94.449 C 239.520 94.972,241.724 94.891,241.724 94.356 C 241.724 94.106,242.820 92.035,244.160 89.752 C 247.275 84.444,249.559 79.926,249.559 79.071 C 249.559 77.586,248.861 78.135,247.828 80.433 M280.381 84.640 C 279.424 85.393,279.181 85.407,275.104 84.954 C 267.176 84.072,251.517 89.097,252.497 92.208 C 252.940 93.615,252.797 94.226,251.573 96.157 C 249.919 98.764,250.826 100.102,253.197 98.551 C 253.674 98.239,255.122 97.708,256.415 97.372 C 257.708 97.037,259.346 96.487,260.055 96.151 C 262.105 95.180,262.708 95.504,262.549 97.492 C 262.418 99.140,262.440 99.176,263.529 99.051 C 265.633 98.809,265.318 100.267,262.880 102.057 C 261.802 102.848,260.921 103.726,260.921 104.008 C 260.921 104.948,270.058 110.130,271.608 110.069 C 273.600 109.991,280.725 98.019,279.141 97.411 C 278.523 97.174,276.983 98.393,276.983 99.119 C 276.983 99.334,276.807 99.510,276.592 99.510 C 275.807 99.510,276.255 98.314,279.138 92.718 C 282.669 85.864,283.199 82.423,280.381 84.640 M125.545 143.567 C 125.016 144.096,124.584 144.801,124.584 145.134 C 124.584 146.153,123.015 145.818,121.915 144.564 C 119.807 142.163,118.675 143.492,120.568 146.145 C 123.101 149.694,125.679 150.042,130.287 147.456 C 135.741 144.395,135.646 142.605,130.031 142.605 C 126.812 142.605,126.424 142.688,125.545 143.567 M199.490 144.903 C 198.210 146.375,196.675 147.616,195.220 148.356 L 192.948 149.511 192.832 151.915 C 192.699 154.676,193.578 156.860,195.384 158.253 C 198.735 160.837,198.522 160.556,197.649 161.244 C 197.128 161.655,196.380 161.800,195.412 161.675 C 194.394 161.545,193.807 161.672,193.453 162.101 C 192.860 162.819,199.908 162.582,202.663 161.791 C 208.391 160.145,216.468 151.147,214.915 148.143 C 213.517 145.440,208.025 142.605,204.185 142.605 L 201.489 142.605 199.490 144.903 M113.026 168.623 C 106.418 170.260,104.238 173.811,103.192 184.640 C 102.905 187.612,102.576 190.195,102.461 190.381 C 100.515 193.530,100.309 203.208,102.118 206.464 C 106.061 213.560,106.537 214.686,106.934 217.852 C 107.427 221.784,107.583 222.058,110.782 224.611 C 112.232 225.768,114.405 227.780,115.610 229.083 C 120.582 234.455,123.836 235.000,128.202 231.191 C 128.906 230.578,130.218 229.702,131.119 229.245 C 132.021 228.789,132.891 228.200,133.053 227.937 C 133.418 227.346,134.081 218.667,133.946 216.259 C 133.764 213.038,133.919 190.338,134.183 181.524 C 134.361 175.584,134.310 172.593,134.021 172.052 C 132.598 169.394,118.926 167.161,113.026 168.623 " stroke="none" fill="#4a4019" fill-rule="evenodd"></path><path id="path1" d="M196.278 12.800 C 143.146 15.706,99.631 36.227,65.579 74.437 C 59.871 80.841,46.621 98.802,46.621 100.134 C 46.621 100.213,46.020 101.218,45.285 102.366 C 26.153 132.275,16.626 176.912,20.985 216.224 C 32.365 318.867,126.050 391.627,227.816 376.857 C 329.537 362.094,399.135 264.457,380.421 162.772 C 364.932 78.608,295.798 17.976,209.598 12.957 C 202.660 12.553,201.124 12.534,196.278 12.800 M213.245 13.734 C 232.634 15.960,233.429 16.094,248.137 19.585 C 259.372 22.251,281.165 31.132,289.837 36.579 C 290.632 37.078,291.464 37.559,291.685 37.647 C 292.687 38.045,301.297 43.403,303.232 44.833 C 304.417 45.709,306.092 46.879,306.954 47.434 C 313.834 51.866,329.176 65.769,336.966 74.633 C 337.913 75.710,338.814 76.648,338.969 76.718 C 339.124 76.788,339.904 77.757,340.702 78.873 C 341.501 79.988,342.994 81.888,344.021 83.095 C 346.797 86.359,354.690 97.919,357.503 102.840 C 358.858 105.211,360.425 107.943,360.985 108.913 C 362.644 111.782,367.591 122.509,370.652 129.873 C 371.155 131.082,374.727 142.055,375.690 145.348 C 377.388 151.152,377.674 152.257,378.431 155.926 C 384.012 182.964,384.129 206.805,378.811 233.692 C 378.172 236.925,377.372 240.539,377.034 241.724 C 376.133 244.878,373.765 252.643,373.151 254.456 C 371.368 259.725,369.672 264.302,369.384 264.623 C 369.200 264.828,369.050 265.204,369.050 265.460 C 369.050 265.716,368.276 267.576,367.330 269.593 C 366.384 271.611,364.829 274.936,363.876 276.983 C 361.684 281.686,355.774 291.987,352.637 296.572 C 351.679 297.973,350.190 300.176,349.329 301.469 C 345.836 306.711,337.002 317.157,330.407 323.842 C 323.656 330.684,322.346 331.918,317.772 335.749 C 316.614 336.719,315.469 337.693,315.228 337.914 C 314.592 338.496,310.573 341.553,306.954 344.208 C 304.081 346.316,294.495 352.556,291.660 354.164 C 287.187 356.702,276.832 361.826,273.066 363.366 C 270.588 364.379,268.031 365.432,267.385 365.706 C 263.688 367.272,261.056 368.269,260.622 368.268 C 260.349 368.267,259.820 368.433,259.446 368.638 C 258.708 369.040,255.404 370.038,249.559 371.623 C 245.262 372.789,244.470 372.981,239.199 374.144 C 237.056 374.617,234.885 375.163,234.374 375.357 C 233.863 375.551,232.708 375.714,231.806 375.720 C 230.904 375.725,229.461 375.892,228.599 376.091 C 219.217 378.256,178.907 378.394,175.474 376.273 C 175.336 376.188,173.834 375.944,172.137 375.732 C 170.439 375.519,167.111 374.885,164.740 374.323 C 162.370 373.761,159.726 373.159,158.864 372.984 C 156.816 372.570,146.697 369.662,143.193 368.481 C 133.158 365.099,119.690 358.869,110.088 353.167 C 101.618 348.138,92.726 341.941,87.365 337.332 C 85.965 336.128,84.025 334.506,83.056 333.728 C 79.459 330.844,69.387 320.620,63.750 314.130 C 57.877 307.370,48.363 293.807,44.425 286.582 C 39.188 276.972,37.540 273.569,34.083 265.230 C 32.184 260.650,28.854 251.229,28.196 248.580 C 28.036 247.933,27.377 245.465,26.732 243.095 C 26.086 240.725,25.440 238.257,25.294 237.610 C 23.051 227.654,22.749 225.903,21.705 216.846 C 20.510 206.485,20.211 188.074,21.107 180.020 C 22.075 171.302,22.808 165.844,23.395 162.977 C 23.726 161.361,24.136 159.227,24.307 158.234 C 24.477 157.241,24.796 155.743,25.014 154.904 C 25.696 152.289,27.061 147.207,27.687 144.956 C 28.572 141.772,31.045 133.881,31.371 133.203 C 31.526 132.880,31.927 131.910,32.261 131.048 C 33.436 128.017,35.740 122.412,36.447 120.862 C 39.579 113.992,43.490 106.417,45.952 102.449 C 49.542 96.661,54.718 88.739,55.356 88.054 C 55.616 87.775,56.963 86.052,58.350 84.224 C 65.329 75.028,79.136 60.651,85.998 55.436 C 86.848 54.789,88.165 53.710,88.924 53.038 C 92.222 50.114,102.166 43.211,108.667 39.331 C 110.795 38.061,113.086 36.691,113.760 36.285 C 115.334 35.339,125.725 30.136,128.959 28.675 C 130.324 28.058,133.996 26.621,137.120 25.480 C 140.245 24.339,143.154 23.266,143.585 23.096 C 144.396 22.777,149.746 21.017,151.812 20.391 C 152.458 20.195,154.221 19.750,155.730 19.403 C 157.238 19.055,159.177 18.603,160.039 18.397 C 168.894 16.286,176.527 15.065,187.071 14.074 C 189.657 13.831,191.846 13.562,191.936 13.476 C 192.294 13.134,209.874 13.347,213.245 13.734 M188.443 23.142 C 186.827 23.317,183.653 23.660,181.391 23.903 C 174.269 24.670,161.107 27.201,155.841 28.815 C 154.056 29.362,151.714 30.079,150.637 30.407 C 147.875 31.249,136.807 35.216,135.162 35.955 C 109.509 47.462,89.202 62.158,72.595 81.232 C 70.502 83.636,68.683 85.690,68.553 85.798 C 68.423 85.906,67.483 87.140,66.465 88.541 C 65.446 89.941,64.001 91.881,63.254 92.850 C 60.150 96.876,54.034 106.347,51.614 110.874 C 44.827 123.568,40.597 133.429,37.413 143.976 C 25.092 184.800,27.207 224.767,43.820 265.034 C 50.047 280.126,62.784 299.891,74.245 312.243 C 75.145 313.213,76.332 314.799,76.884 315.769 C 80.087 321.400,103.461 340.178,114.187 345.738 C 115.919 346.635,120.245 348.887,123.800 350.742 C 130.178 354.068,137.249 357.129,144.809 359.836 C 146.937 360.598,149.030 361.389,149.461 361.593 C 152.943 363.245,166.799 366.449,175.710 367.663 C 212.913 372.731,247.172 367.215,279.256 350.990 C 283.581 348.803,286.706 346.959,287.561 346.089 C 288.315 345.322,291.224 343.277,294.025 341.544 C 296.827 339.811,299.824 337.832,300.686 337.148 C 301.548 336.463,303.751 334.820,305.583 333.497 C 307.414 332.174,309.536 330.509,310.299 329.796 C 311.061 329.084,312.648 327.742,313.825 326.813 C 325.396 317.685,341.323 298.598,350.176 283.252 C 353.445 277.585,360.039 264.357,360.039 263.466 C 360.039 263.370,360.540 262.185,361.151 260.833 C 363.065 256.601,367.545 242.344,369.371 234.672 C 372.866 219.993,374.330 200.793,373.197 184.525 C 372.567 175.486,370.412 159.530,369.657 158.308 C 369.534 158.108,369.258 157.006,369.044 155.858 C 368.830 154.710,368.396 152.889,368.079 151.812 C 367.762 150.735,367.043 148.266,366.480 146.327 C 364.568 139.731,362.226 133.107,360.246 128.697 C 359.956 128.051,358.900 125.671,357.899 123.408 C 355.709 118.458,354.484 116.065,350.976 109.892 C 348.602 105.716,347.398 103.775,343.049 97.117 C 342.025 95.549,336.612 88.221,336.136 87.757 C 336.025 87.649,335.151 86.592,334.193 85.406 C 326.896 76.376,317.202 66.945,306.366 58.333 C 294.789 49.132,274.463 37.898,261.057 33.290 C 248.566 28.997,244.076 27.728,235.455 26.057 C 220.368 23.132,200.136 21.877,188.443 23.142 M145.223 47.362 C 149.841 53.935,150.009 61.104,145.886 75.571 C 143.872 82.635,142.811 84.812,138.155 91.418 C 137.076 92.950,137.543 93.634,139.670 93.634 C 141.589 93.634,144.175 92.541,145.028 91.369 C 145.745 90.384,150.740 86.444,152.400 85.554 C 154.344 84.511,161.402 84.493,163.294 85.526 C 165.053 86.486,166.895 89.462,166.895 91.345 C 166.895 92.726,166.992 92.846,168.410 93.228 C 169.698 93.575,190.593 93.574,204.505 93.227 C 216.528 92.927,233.244 93.926,236.912 95.163 C 240.082 96.232,240.322 96.199,237.986 95.017 C 236.059 94.041,233.084 93.386,230.069 93.275 C 228.562 93.219,229.291 91.778,232.822 87.837 C 236.261 83.998,233.589 82.932,220.372 82.871 C 215.847 82.850,211.036 82.955,209.680 83.104 C 207.402 83.355,204.146 82.893,204.649 82.390 C 204.769 82.270,207.033 81.934,209.681 81.642 C 212.329 81.351,215.730 80.976,217.238 80.811 C 221.340 80.360,229.483 80.501,231.929 81.066 C 236.375 82.092,237.410 81.536,244.938 74.077 C 252.771 66.316,253.198 66.042,251.505 69.869 C 250.836 71.382,250.717 72.421,250.761 76.385 C 250.816 81.374,250.270 83.168,247.502 87.100 C 246.877 87.987,246.772 88.573,246.970 90.065 C 247.409 93.374,246.126 96.518,244.226 96.791 L 242.703 97.011 244.270 97.293 C 246.681 97.727,248.488 98.375,249.514 99.174 C 250.028 99.575,250.733 99.891,251.081 99.877 C 251.499 99.861,251.412 99.731,250.824 99.495 C 249.484 98.957,249.358 98.068,250.343 96.097 C 251.150 94.479,251.174 94.279,250.592 93.954 C 249.860 93.544,249.753 91.854,250.359 90.261 C 250.825 89.035,251.700 88.162,254.576 86.050 C 255.695 85.228,256.612 84.439,256.613 84.296 C 256.614 84.152,257.804 82.798,259.257 81.285 C 261.785 78.656,263.527 77.513,268.952 74.929 C 270.029 74.416,271.881 73.522,273.066 72.943 L 275.220 71.890 275.193 69.540 C 275.144 65.306,274.638 64.336,269.526 58.686 C 264.374 52.991,264.328 52.897,266.001 51.334 C 270.236 47.378,279.281 47.590,283.156 51.736 C 286.156 54.946,289.144 63.605,290.178 72.086 C 292.006 87.076,291.993 92.878,290.108 102.366 C 289.354 106.162,288.737 109.866,288.737 110.597 C 288.737 111.387,288.403 112.310,287.916 112.869 C 287.464 113.386,286.587 114.926,285.967 116.289 C 285.153 118.079,284.658 118.733,284.187 118.640 C 283.111 118.428,280.594 113.849,280.072 111.155 C 279.450 107.942,279.249 107.885,276.462 110.131 C 273.847 112.238,273.557 112.321,271.871 111.449 C 270.057 110.511,270.518 111.075,272.624 112.371 C 278.303 115.865,288.225 126.192,293.211 133.797 C 294.056 135.086,295.036 136.582,295.388 137.120 C 296.009 138.071,297.656 141.414,301.083 148.678 C 305.218 157.445,307.642 166.407,309.454 179.628 C 310.822 189.614,310.844 211.115,309.494 219.001 C 309.291 220.186,308.845 223.039,308.504 225.340 C 306.172 241.041,296.825 262.188,287.692 272.422 C 285.414 274.976,285.436 274.995,289.814 274.223 C 294.688 273.365,296.610 272.472,299.453 269.751 C 305.077 264.366,313.012 263.769,314.610 268.610 C 315.343 270.831,314.921 275.774,313.850 277.506 C 313.063 278.779,313.022 279.071,313.460 280.282 C 313.866 281.405,313.840 282.156,313.304 284.696 C 312.950 286.380,312.562 288.930,312.444 290.363 C 312.326 291.796,312.029 293.542,311.785 294.242 C 311.449 295.207,311.459 295.971,311.826 297.404 C 312.896 301.580,310.902 305.034,299.939 317.995 C 299.313 318.735,298.113 319.692,297.272 320.121 C 296.166 320.685,295.543 321.370,295.015 322.601 C 294.614 323.536,294.096 324.419,293.863 324.563 C 293.631 324.707,293.056 325.718,292.586 326.811 C 291.877 328.458,291.424 328.943,289.940 329.643 C 288.955 330.108,287.511 331.099,286.731 331.846 C 285.952 332.592,284.418 333.818,283.324 334.571 C 281.543 335.795,279.063 338.878,277.439 341.885 C 277.150 342.419,275.872 343.665,274.598 344.654 C 270.852 347.563,271.627 349.094,275.711 346.850 C 279.625 344.700,285.994 344.215,285.994 346.067 C 285.994 346.608,272.953 353.388,268.560 355.131 C 251.572 361.873,241.898 364.522,224.878 367.092 C 211.861 369.057,185.798 369.434,182.987 367.697 C 182.860 367.618,180.393 367.354,177.503 367.108 C 170.713 366.532,161.146 364.611,153.183 362.226 C 149.345 361.077,148.544 359.648,151.737 359.647 C 154.305 359.646,156.121 358.559,156.121 357.023 C 156.121 356.028,156.584 355.294,158.374 353.452 C 162.328 349.384,160.981 346.711,155.603 347.952 C 153.966 348.330,153.393 348.298,152.033 347.754 C 150.575 347.171,150.297 347.165,149.270 347.696 C 146.274 349.245,143.149 348.046,138.394 343.520 C 135.982 341.226,135.909 340.742,137.627 338.450 C 139.984 335.303,141.360 332.834,142.003 330.594 C 143.310 326.046,146.395 323.938,149.552 325.437 C 151.188 326.213,151.523 325.933,152.649 322.855 C 153.606 320.237,154.349 319.554,155.685 320.061 C 157.373 320.703,157.579 320.603,159.497 318.216 C 161.870 315.263,162.586 313.795,162.586 311.886 C 162.586 310.147,162.288 310.312,167.629 309.095 L 169.734 308.616 169.500 306.610 C 169.237 304.339,169.326 304.137,171.151 302.862 C 172.290 302.065,172.379 301.892,171.811 301.574 C 171.142 301.199,155.004 301.393,145.739 301.887 C 142.532 302.058,139.525 301.975,137.023 301.647 C 131.392 300.909,129.449 302.162,130.429 305.900 C 130.694 306.911,130.988 309.484,131.083 311.618 C 131.213 314.558,131.439 315.797,132.017 316.731 C 132.436 317.409,132.687 318.312,132.576 318.737 C 132.465 319.163,132.823 320.476,133.372 321.655 C 134.976 325.102,134.248 328.846,131.662 330.444 C 131.432 330.586,131.244 331.160,131.244 331.720 C 131.244 332.279,130.759 333.370,130.167 334.144 C 128.501 336.318,127.326 338.102,127.326 338.456 C 127.326 340.377,123.144 341.662,121.081 340.374 C 119.990 339.693,118.399 340.515,118.113 341.906 C 117.222 346.255,115.687 346.256,108.902 341.911 C 98.020 334.944,80.760 320.588,77.760 316.009 C 77.051 314.927,77.321 314.044,80.556 306.864 C 81.964 303.740,83.037 300.406,83.256 298.474 C 83.387 297.320,83.772 295.167,84.111 293.689 C 84.565 291.714,84.675 289.800,84.529 286.476 C 84.311 281.532,84.514 280.396,86.288 276.641 C 88.289 272.406,88.145 270.517,85.499 266.301 C 84.841 265.252,84.849 265.164,85.755 263.559 C 88.891 258.004,89.689 255.425,90.000 249.832 L 90.214 245.992 88.233 242.193 C 75.578 217.926,73.907 177.752,84.858 161.019 C 87.235 157.386,90.430 148.657,91.884 141.822 C 92.457 139.128,93.165 136.396,93.457 135.749 C 93.749 135.103,94.541 133.164,95.216 131.440 C 97.193 126.397,100.469 120.372,103.524 116.161 L 106.366 112.243 106.393 104.603 C 106.436 92.737,105.257 93.569,121.889 93.661 L 134.546 93.732 135.558 92.519 C 141.483 85.422,143.365 75.514,141.673 60.333 C 140.618 50.872,140.887 43.847,142.302 43.896 C 142.576 43.905,143.891 45.465,145.223 47.362 M152.403 45.057 C 153.074 45.729,153.152 46.158,152.936 47.995 C 152.753 49.553,152.814 50.147,153.156 50.147 C 153.449 50.147,153.534 49.851,153.380 49.367 C 152.977 48.096,153.562 47.634,154.415 48.550 C 154.832 48.998,155.407 49.363,155.694 49.363 C 156.871 49.363,161.262 55.608,162.030 58.374 C 162.359 59.559,162.860 61.234,163.144 62.096 C 163.427 62.958,163.887 64.412,164.165 65.328 C 164.443 66.244,164.837 66.993,165.042 66.993 C 165.246 66.993,165.303 67.431,165.169 67.967 C 164.996 68.654,165.156 69.172,165.714 69.730 C 166.148 70.164,166.503 70.835,166.503 71.221 C 166.503 71.607,167.076 72.568,167.777 73.355 C 168.477 74.143,169.430 75.290,169.895 75.903 L 170.739 77.018 166.071 77.034 C 161.835 77.049,161.318 77.129,160.499 77.898 C 159.099 79.214,157.418 79.015,155.966 77.361 C 154.251 75.408,154.587 74.242,156.394 75.877 C 156.950 76.381,157.227 76.426,157.580 76.073 C 157.834 75.820,158.436 75.612,158.919 75.612 C 160.021 75.612,160.447 74.986,159.648 74.539 C 159.316 74.353,158.967 73.796,158.871 73.300 C 158.776 72.804,158.493 72.152,158.243 71.850 C 157.897 71.433,157.905 71.163,158.276 70.715 C 158.798 70.087,161.410 69.891,161.410 70.480 C 161.410 70.674,162.027 70.833,162.782 70.833 C 163.713 70.833,164.153 70.652,164.153 70.269 C 164.153 69.889,163.804 69.743,163.081 69.819 C 162.158 69.916,162.006 69.786,161.986 68.893 C 161.973 68.322,161.718 67.559,161.418 67.198 C 161.069 66.778,161.015 66.447,161.268 66.278 C 161.929 65.837,162.159 64.764,161.693 64.299 C 161.452 64.057,161.069 63.300,160.843 62.615 C 160.292 60.951,159.632 60.820,159.125 62.274 C 158.619 63.726,156.709 64.049,156.709 62.684 C 156.709 62.253,156.869 61.900,157.064 61.900 C 157.260 61.900,157.327 61.548,157.214 61.117 C 157.102 60.686,156.843 60.333,156.640 60.333 C 156.437 60.333,156.380 60.157,156.513 59.941 C 156.815 59.452,158.276 59.422,158.276 59.905 C 158.276 60.100,158.627 60.168,159.056 60.056 C 159.802 59.861,159.794 59.820,158.889 59.107 C 158.064 58.458,157.989 58.201,158.305 57.098 C 158.784 55.429,158.847 55.637,157.360 53.967 C 155.293 51.644,154.755 52.454,156.513 55.240 C 157.620 56.994,157.837 59.158,156.905 59.158 C 156.582 59.158,156.317 58.971,156.317 58.743 C 156.317 57.813,155.611 58.847,155.437 60.031 C 155.315 60.860,155.444 61.447,155.805 61.711 C 156.246 62.033,156.281 62.471,155.976 63.829 C 155.676 65.166,155.716 65.731,156.159 66.408 C 156.649 67.156,156.651 67.338,156.171 67.736 C 155.865 67.990,155.693 68.499,155.789 68.868 C 156.006 69.709,154.267 72.126,153.704 71.765 C 152.892 71.244,152.773 69.771,153.189 65.374 C 154.025 56.541,154.040 55.789,153.392 55.251 C 153.062 54.977,152.791 54.243,152.791 53.620 C 152.791 52.997,152.630 52.181,152.433 51.807 C 151.438 49.921,150.833 48.151,150.833 47.130 C 150.833 46.505,150.636 45.798,150.397 45.558 C 149.874 45.035,150.263 44.270,151.052 44.270 C 151.362 44.270,151.970 44.624,152.403 45.057 M153.575 53.085 C 153.575 53.408,153.751 53.673,153.967 53.673 C 154.182 53.673,154.358 53.408,154.358 53.085 C 154.358 52.762,154.182 52.498,153.967 52.498 C 153.751 52.498,153.575 52.762,153.575 53.085 M140.404 64.349 C 140.527 65.480,140.743 68.391,140.883 70.818 C 141.130 75.103,141.062 75.706,139.790 80.509 C 139.318 82.292,137.456 87.070,137.118 87.365 C 136.995 87.473,136.508 88.178,136.035 88.932 C 134.941 90.676,134.761 89.265,135.820 87.248 C 136.182 86.558,136.699 84.584,136.970 82.860 C 137.240 81.136,137.731 78.139,138.060 76.200 C 138.625 72.867,138.936 69.974,139.261 65.034 C 139.450 62.162,139.423 62.292,139.825 62.292 C 140.020 62.292,140.280 63.217,140.404 64.349 M160.137 63.714 C 161.077 63.966,161.310 65.152,160.627 66.210 C 160.302 66.712,160.246 66.698,160.241 66.112 C 160.237 65.689,159.934 65.426,159.452 65.426 C 158.877 65.426,158.668 65.165,158.668 64.447 C 158.668 63.400,158.772 63.348,160.137 63.714 M156.966 71.568 C 156.441 72.093,155.909 71.207,156.396 70.619 C 156.855 70.066,156.918 70.073,157.038 70.685 C 157.110 71.058,157.078 71.456,156.966 71.568 M160.627 71.890 C 160.219 72.381,160.276 72.478,160.971 72.478 C 161.449 72.478,161.802 72.228,161.802 71.890 C 161.802 71.567,161.647 71.303,161.458 71.303 C 161.269 71.303,160.895 71.567,160.627 71.890 M156.086 72.813 C 156.329 73.205,154.464 75.065,154.147 74.748 C 153.264 73.865,153.614 72.478,154.719 72.478 C 155.357 72.478,155.972 72.629,156.086 72.813 M162.583 72.805 C 162.366 72.878,162.289 73.098,162.410 73.295 C 162.532 73.492,162.313 73.667,161.923 73.684 C 161.512 73.702,161.420 73.798,161.704 73.913 C 161.974 74.021,162.194 74.373,162.194 74.694 C 162.194 75.530,163.469 75.175,163.597 74.303 C 163.760 73.186,164.110 73.053,164.717 73.878 C 165.243 74.593,165.286 74.596,165.544 73.930 C 165.948 72.888,164.258 72.246,162.583 72.805 M134.287 92.067 C 133.817 92.820,133.203 93.121,133.203 92.600 C 133.203 92.383,134.391 91.330,134.675 91.296 C 134.731 91.289,134.556 91.636,134.287 92.067 M240.189 96.125 C 240.279 96.203,240.881 96.384,241.528 96.529 C 242.386 96.721,242.545 96.684,242.116 96.394 C 241.587 96.036,239.796 95.786,240.189 96.125 M259.573 97.760 C 259.154 98.076,258.490 98.335,258.097 98.335 C 257.053 98.335,254.261 99.260,254.261 99.606 C 254.261 99.769,253.688 99.913,252.987 99.927 L 251.714 99.952 252.889 100.511 C 253.536 100.818,255.247 101.604,256.693 102.257 C 258.138 102.910,259.587 103.824,259.911 104.288 C 260.478 105.097,260.494 105.078,260.300 103.790 C 260.112 102.536,260.200 102.403,261.649 101.748 C 263.870 100.744,264.068 99.902,262.084 99.902 C 260.434 99.902,259.882 98.747,260.999 97.630 C 261.701 96.928,260.531 97.035,259.573 97.760 M105.779 109.805 C 105.779 111.515,105.774 111.522,102.201 115.730 C 101.634 116.398,100.728 117.738,100.187 118.707 C 99.646 119.677,98.652 121.440,97.978 122.625 C 94.024 129.577,92.055 135.018,90.109 144.368 C 89.680 146.430,88.797 149.140,88.436 149.501 C 88.278 149.659,88.149 150.092,88.149 150.464 C 88.149 150.836,87.873 151.246,87.536 151.376 C 87.089 151.547,86.977 151.426,87.123 150.928 C 87.233 150.552,87.436 149.540,87.573 148.678 C 87.787 147.327,89.239 140.504,89.948 137.512 C 92.031 128.728,96.348 119.711,102.047 112.242 C 103.453 110.399,104.603 108.719,104.603 108.510 C 104.603 108.301,104.868 108.129,105.191 108.129 C 105.622 108.129,105.779 108.577,105.779 109.805 M297.741 134.672 C 297.745 134.941,297.571 135.162,297.356 135.162 C 297.140 135.162,296.966 134.677,296.970 134.084 C 296.976 132.981,297.728 133.554,297.741 134.672 M298.837 137.228 C 299.092 137.933,299.476 139.388,299.690 140.460 C 299.905 141.532,300.192 142.806,300.330 143.291 C 300.707 144.616,299.976 144.350,299.349 142.934 C 298.334 140.641,297.377 137.129,297.605 136.535 C 297.956 135.619,298.332 135.830,298.837 137.228 M118.577 142.866 C 117.680 143.763,119.620 147.284,121.950 148.992 C 126.020 151.976,131.983 150.970,133.644 147.018 L 134.341 145.358 132.931 146.769 C 131.273 148.427,128.021 150.040,126.326 150.045 C 123.071 150.056,117.836 145.265,119.024 143.364 C 119.469 142.651,119.148 142.295,118.577 142.866 M124.556 143.226 C 124.223 143.628,123.630 143.787,122.881 143.677 C 121.843 143.525,121.795 143.561,122.423 144.020 C 122.885 144.359,123.351 144.413,123.789 144.179 C 124.479 143.809,125.610 142.605,125.267 142.605 C 125.160 142.605,124.840 142.885,124.556 143.226 M210.382 143.748 C 216.937 147.455,217.360 149.544,212.695 155.149 C 207.728 161.118,198.200 165.118,193.242 163.317 C 191.195 162.574,192.432 160.746,195.111 160.556 L 196.866 160.431 195.299 158.843 C 194.437 157.970,194.084 157.704,194.515 158.252 C 194.946 158.800,195.446 159.358,195.625 159.492 C 196.004 159.773,194.966 160.235,193.956 160.235 C 193.042 160.235,191.866 161.569,192.032 162.417 C 192.527 164.937,200.176 165.020,205.167 162.561 C 207.829 161.249,208.548 160.691,212.576 156.807 C 214.681 154.777,215.656 154.315,215.954 155.207 C 216.631 157.240,221.922 152.297,221.650 149.886 C 221.346 147.184,223.043 145.677,223.521 148.226 C 223.724 149.306,223.916 149.508,224.616 149.375 C 225.094 149.285,225.808 149.534,226.249 149.945 C 228.317 151.874,229.018 151.273,227.020 149.284 C 226.273 148.540,225.661 147.813,225.661 147.667 C 225.661 147.521,225.088 147.167,224.388 146.879 C 223.688 146.592,222.811 145.976,222.440 145.510 C 221.105 143.836,219.296 143.333,214.973 143.435 C 212.771 143.486,210.529 143.403,209.990 143.250 C 209.286 143.050,209.396 143.190,210.382 143.748 M222.527 155.926 C 222.527 156.141,222.262 156.317,221.939 156.317 C 221.318 156.317,221.215 157.202,221.695 158.422 C 221.957 159.089,222.035 159.099,222.549 158.534 C 223.793 157.166,223.958 156.855,223.737 156.304 C 223.470 155.639,222.527 155.345,222.527 155.926 M218.103 163.766 C 217.989 164.200,217.275 164.814,216.517 165.132 C 215.758 165.449,215.036 165.872,214.912 166.072 C 214.789 166.272,213.994 166.552,213.146 166.696 C 212.036 166.883,211.665 167.112,211.819 167.513 C 212.064 168.151,213.350 168.264,213.712 167.679 C 213.845 167.463,214.269 167.287,214.654 167.287 C 215.681 167.287,217.552 166.268,218.431 165.229 C 220.371 162.937,220.355 162.977,219.291 162.977 C 218.636 162.977,218.240 163.240,218.103 163.766 M205.877 164.545 C 205.743 164.760,205.204 164.936,204.678 164.936 C 204.084 164.936,203.722 165.162,203.722 165.531 C 203.722 165.981,203.985 166.064,204.799 165.873 C 205.908 165.611,206.938 164.941,206.249 164.930 C 206.044 164.927,206.141 164.753,206.464 164.545 C 206.817 164.316,206.866 164.162,206.585 164.159 C 206.329 164.155,206.010 164.329,205.877 164.545 M199.608 166.112 C 199.475 166.327,199.729 166.503,200.173 166.503 C 200.616 166.503,200.979 166.327,200.979 166.112 C 200.979 165.896,200.725 165.720,200.415 165.720 C 200.104 165.720,199.741 165.896,199.608 166.112 M193.915 167.385 C 193.909 168.085,193.871 170.157,193.832 171.988 C 193.762 175.301,193.767 175.318,194.726 175.250 C 196.413 175.131,199.480 174.363,200.702 173.753 C 201.352 173.429,202.195 173.164,202.577 173.164 C 202.958 173.164,203.768 172.753,204.377 172.251 C 204.986 171.749,205.793 171.225,206.170 171.088 C 206.958 170.800,207.106 169.638,206.356 169.638 C 206.080 169.638,205.419 169.944,204.886 170.319 C 204.354 170.694,203.441 171.025,202.859 171.056 C 202.277 171.086,201.499 171.412,201.131 171.780 C 200.520 172.391,200.431 172.395,200.109 171.819 C 199.639 170.979,199.021 171.412,199.021 172.581 C 199.021 173.341,198.763 173.568,197.673 173.773 C 196.286 174.033,194.228 173.117,195.054 172.606 C 195.463 172.353,195.394 168.075,194.969 167.387 C 194.830 167.162,195.165 167.091,195.793 167.211 C 196.780 167.399,196.808 167.369,196.201 166.762 C 195.055 165.616,193.929 165.922,193.915 167.385 M119.882 167.707 C 125.896 168.075,131.911 169.557,133.790 171.134 C 134.569 171.788,134.569 171.787,133.820 170.903 C 132.322 169.134,124.225 167.251,118.537 167.347 L 114.985 167.407 119.882 167.707 M106.733 171.303 L 105.583 172.576 106.856 171.425 C 107.556 170.792,108.129 170.219,108.129 170.152 C 108.129 169.849,107.806 170.116,106.733 171.303 M102.344 185.700 C 102.344 186.454,102.424 186.763,102.523 186.386 C 102.621 186.009,102.621 185.392,102.523 185.015 C 102.424 184.638,102.344 184.946,102.344 185.700 M101.714 188.492 C 101.387 190.125,101.704 190.441,102.057 188.834 C 102.206 188.157,102.246 187.521,102.146 187.422 C 102.046 187.322,101.852 187.803,101.714 188.492 M100.903 191.795 C 100.756 192.581,100.713 193.302,100.809 193.398 C 100.905 193.494,101.104 192.929,101.251 192.143 C 101.399 191.357,101.441 190.635,101.346 190.539 C 101.250 190.443,101.051 191.008,100.903 191.795 M134.125 194.907 C 134.124 196.846,134.190 197.689,134.273 196.780 C 134.355 195.870,134.356 194.284,134.275 193.254 C 134.194 192.224,134.127 192.968,134.125 194.907 M100.116 195.708 C 99.966 196.708,99.923 197.605,100.021 197.703 C 100.119 197.801,100.322 197.064,100.472 196.064 C 100.622 195.065,100.664 194.167,100.566 194.069 C 100.468 193.971,100.266 194.709,100.116 195.708 M99.632 200.784 C 99.634 202.076,99.707 202.558,99.794 201.854 C 99.881 201.150,99.880 200.092,99.790 199.503 C 99.701 198.915,99.629 199.491,99.632 200.784 M134.112 201.371 C 134.112 202.772,134.183 203.345,134.270 202.644 C 134.357 201.944,134.357 200.798,134.270 200.098 C 134.183 199.398,134.112 199.971,134.112 201.371 M99.911 204.076 C 99.900 204.747,102.501 209.463,103.078 209.820 C 103.306 209.961,103.013 209.317,102.427 208.388 C 101.841 207.460,101.037 205.987,100.640 205.113 C 100.244 204.240,99.915 203.773,99.911 204.076 M134.125 209.011 C 134.124 210.950,134.190 211.793,134.273 210.884 C 134.355 209.974,134.356 208.388,134.275 207.358 C 134.194 206.328,134.127 207.071,134.125 209.011 M314.351 208.106 C 314.158 208.419,313.978 208.324,313.791 207.809 C 313.431 206.816,313.815 206.179,314.277 207.005 C 314.475 207.357,314.508 207.853,314.351 208.106 M104.092 211.748 C 104.451 212.500,104.813 213.045,104.898 212.960 C 105.078 212.781,103.888 210.382,103.620 210.382 C 103.521 210.382,103.734 210.997,104.092 211.748 M318.548 218.702 C 318.743 219.076,318.896 220.046,318.888 220.857 L 318.872 222.331 318.323 221.068 C 318.021 220.373,317.486 219.139,317.134 218.325 C 316.782 217.512,316.221 216.284,315.887 215.597 C 315.495 214.791,315.379 213.958,315.559 213.247 C 315.817 212.225,315.923 212.360,317.015 215.083 C 317.663 216.699,318.353 218.328,318.548 218.702 M105.250 213.908 C 105.422 214.231,105.676 215.289,105.814 216.259 L 106.066 218.022 106.118 216.431 C 106.149 215.498,105.916 214.527,105.554 214.081 C 105.215 213.662,105.078 213.585,105.250 213.908 M106.204 219.898 C 106.133 221.386,107.847 223.782,110.600 226.042 C 112.164 227.326,114.190 229.248,115.102 230.314 C 116.013 231.380,117.682 232.872,118.811 233.629 C 119.939 234.386,121.412 235.517,122.085 236.142 C 124.324 238.222,125.465 238.981,126.352 238.981 C 126.835 238.981,127.450 239.246,127.718 239.569 C 127.986 239.892,128.634 240.157,129.157 240.157 C 129.680 240.157,130.644 240.434,131.300 240.773 C 133.070 241.689,133.472 240.267,133.741 232.125 C 133.805 230.186,133.792 229.945,133.711 231.589 C 133.523 235.420,132.981 236.006,129.602 236.028 C 127.582 236.041,127.138 236.175,126.641 236.925 C 125.825 238.153,125.208 238.035,123.302 236.289 C 122.391 235.455,120.645 234.136,119.421 233.357 C 118.198 232.579,116.292 230.925,115.185 229.683 C 114.079 228.441,112.058 226.543,110.695 225.465 C 108.194 223.488,107.128 222.142,106.552 220.238 C 106.354 219.582,106.225 219.456,106.204 219.898 M134.128 223.702 C 134.128 225.749,134.194 226.587,134.274 225.563 C 134.355 224.540,134.355 222.865,134.274 221.841 C 134.194 220.818,134.128 221.655,134.128 223.702 M320.843 228.806 C 321.850 232.711,321.801 233.086,320.432 231.977 C 319.609 231.311,319.492 230.870,319.440 228.246 C 319.363 224.342,319.730 224.489,320.843 228.806 M96.768 256.976 C 96.768 258.192,98.294 261.384,98.743 261.107 C 99.568 260.596,98.672 257.704,97.347 256.604 C 96.866 256.205,96.768 256.268,96.768 256.976 M103.648 261.214 C 104.158 266.375,104.131 269.873,103.573 270.668 C 103.253 271.125,103.156 271.499,103.356 271.499 C 103.556 271.499,103.829 272.183,103.963 273.019 C 104.096 273.855,104.537 274.948,104.942 275.448 C 105.668 276.345,105.678 276.252,105.631 268.737 C 105.592 262.651,105.467 260.979,105.006 260.431 C 104.038 259.281,103.488 259.598,103.648 261.214 M101.360 265.626 C 100.492 266.641,100.497 267.236,101.371 266.905 C 102.251 266.572,103.036 265.795,103.036 265.258 C 103.036 264.571,102.085 264.780,101.360 265.626 M142.605 303.624 C 143.538 304.557,144.405 304.622,145.208 303.820 C 145.885 303.142,147.354 303.045,147.948 303.638 C 148.215 303.906,148.689 303.918,149.332 303.673 C 150.745 303.136,151.302 303.681,151.439 305.733 L 151.560 307.542 149.481 307.542 C 148.195 307.542,147.232 307.336,146.955 307.003 C 146.709 306.707,145.850 306.358,145.046 306.229 C 144.217 306.096,143.381 305.666,143.114 305.236 C 142.855 304.819,142.105 304.360,141.449 304.216 C 140.792 304.071,140.255 303.703,140.255 303.397 C 140.255 302.579,141.701 302.719,142.605 303.624 M135.086 338.175 C 135.232 339.927,134.412 340.519,132.407 340.109 C 130.630 339.745,130.634 338.800,132.419 337.534 C 134.257 336.229,134.937 336.393,135.086 338.175 " stroke="none" fill="#a48a21" fill-rule="evenodd"></path><path id="path2" d="M0.000 195.886 L 0.000 391.773 200.000 391.773 L 400.000 391.773 400.000 195.886 L 400.000 0.000 200.000 0.000 L 0.000 0.000 0.000 195.886 M211.557 12.162 C 213.604 12.379,217.130 12.724,219.393 12.927 C 231.696 14.032,245.980 16.860,254.848 19.946 C 255.495 20.170,258.051 21.004,260.529 21.797 C 267.219 23.938,270.800 25.420,280.780 30.175 C 313.302 45.669,344.602 75.075,360.667 105.227 C 365.076 113.502,367.228 117.877,369.228 122.625 C 370.453 125.534,371.695 128.443,371.987 129.089 C 372.590 130.422,375.615 139.453,376.842 143.585 C 380.480 155.834,382.677 167.427,383.563 179.040 C 384.841 195.793,384.841 194.794,383.574 212.733 C 382.932 221.814,380.272 236.640,377.880 244.466 C 377.584 245.436,376.957 247.551,376.486 249.167 C 374.893 254.637,373.053 259.924,371.305 264.055 C 370.348 266.317,369.289 268.874,368.952 269.736 C 367.423 273.655,361.675 284.920,359.413 288.434 C 358.895 289.238,358.472 290.006,358.472 290.143 C 358.472 290.656,349.991 303.194,347.142 306.892 C 345.509 309.012,343.796 311.269,343.336 311.907 C 342.877 312.545,341.728 313.896,340.785 314.908 C 339.841 315.920,338.565 317.365,337.949 318.119 C 334.275 322.615,323.578 332.935,316.748 338.572 C 311.916 342.561,297.232 352.987,296.447 352.987 C 296.369 352.987,294.823 353.886,293.011 354.985 C 289.620 357.040,275.809 364.031,272.674 365.279 C 260.223 370.234,250.186 373.456,241.920 375.150 C 213.762 380.919,190.834 381.314,167.679 376.429 C 165.632 375.997,162.723 375.405,161.214 375.113 C 159.706 374.820,157.062 374.202,155.338 373.738 C 153.614 373.274,151.675 372.762,151.028 372.600 C 142.418 370.441,122.717 362.135,112.635 356.415 C 86.479 341.574,59.926 316.207,46.880 293.597 C 46.145 292.324,44.636 289.793,43.526 287.971 C 37.523 278.123,29.277 258.789,26.007 246.897 C 24.197 240.315,21.971 229.937,21.157 224.290 C 20.940 222.782,20.587 220.578,20.374 219.393 C 20.003 217.330,19.123 207.114,18.603 198.825 C 18.334 194.550,19.504 177.791,20.564 170.735 C 22.478 157.982,26.299 142.032,29.038 135.357 C 29.215 134.927,30.267 132.106,31.377 129.089 C 35.891 116.813,46.278 97.592,53.183 88.737 C 53.351 88.521,54.182 87.375,55.030 86.190 C 68.261 67.698,91.614 46.818,111.039 36.110 C 137.077 21.759,159.413 14.914,188.051 12.511 C 190.960 12.267,193.516 12.011,193.732 11.941 C 194.677 11.636,208.182 11.804,211.557 12.162 M134.574 94.408 C 134.143 94.598,128.206 94.766,121.380 94.781 C 108.774 94.809,108.863 94.801,107.674 96.110 C 107.568 96.227,106.941 112.438,106.645 122.714 L 106.366 132.402 105.163 133.500 C 104.501 134.104,103.054 135.941,101.946 137.582 C 99.958 140.529,98.289 142.214,97.360 142.214 C 96.188 142.214,94.809 144.120,94.809 145.740 C 94.809 147.663,94.332 148.642,90.860 153.835 C 89.397 156.026,87.813 158.582,87.341 159.516 C 86.869 160.450,85.918 162.008,85.226 162.977 C 83.371 165.579,81.097 172.430,81.097 175.416 C 81.097 176.266,80.832 177.491,80.509 178.139 C 79.515 180.132,79.270 185.155,80.120 186.095 C 80.553 186.573,80.644 186.876,80.355 186.876 C 79.687 186.876,78.832 189.107,79.055 190.271 C 79.307 191.591,80.016 191.781,81.889 191.031 C 84.517 189.980,84.774 190.928,82.196 192.164 C 78.934 193.728,77.625 196.035,79.239 197.375 C 79.745 197.794,86.710 194.614,89.256 192.801 C 90.742 191.743,91.675 191.730,91.675 192.766 C 91.675 193.349,91.175 193.768,89.814 194.325 C 88.790 194.744,87.424 195.381,86.778 195.741 C 78.665 200.257,78.702 200.220,79.173 203.483 C 79.332 204.584,79.658 207.476,79.898 209.909 C 80.324 214.220,80.489 215.247,81.741 221.352 C 83.163 228.286,88.441 241.406,91.025 244.433 C 91.317 244.774,91.786 245.935,92.068 247.013 C 92.734 249.561,93.019 249.884,94.732 250.027 C 96.010 250.134,96.226 250.318,96.759 251.757 C 97.675 254.228,100.047 256.682,100.911 256.050 C 101.372 255.713,101.476 255.379,101.235 255.006 C 101.041 254.704,100.874 253.046,100.865 251.322 C 100.851 248.753,100.661 247.800,99.807 246.033 C 97.867 242.018,97.804 239.772,99.570 237.543 C 100.395 236.502,101.073 235.299,101.079 234.868 C 101.106 232.641,101.479 232.234,103.251 232.499 C 104.879 232.744,104.932 232.717,105.316 231.458 C 106.039 229.084,106.193 222.878,105.572 221.156 C 105.261 220.294,105.004 218.817,105.001 217.875 C 104.994 215.974,103.552 212.377,101.680 209.591 C 99.610 206.512,99.212 205.557,98.754 202.576 C 98.301 199.630,98.572 196.164,99.585 191.969 C 99.819 190.999,100.086 189.677,100.179 189.030 C 100.271 188.384,100.499 187.502,100.685 187.071 C 100.870 186.641,101.302 184.266,101.644 181.795 C 101.986 179.324,102.440 177.129,102.651 176.918 C 102.863 176.706,103.032 175.819,103.028 174.946 L 103.019 173.359 102.253 174.339 C 101.831 174.878,101.483 175.600,101.478 175.944 C 101.473 176.288,101.091 176.993,100.629 177.511 L 99.788 178.452 100.073 177.473 C 100.229 176.934,100.458 176.066,100.580 175.543 C 101.006 173.728,103.428 171.583,103.428 173.021 C 103.428 173.467,103.693 173.319,104.302 172.531 C 104.783 171.909,105.312 171.342,105.478 171.270 C 105.643 171.198,105.780 170.934,105.781 170.682 C 105.788 169.619,110.185 167.288,112.190 167.286 L 113.418 167.284 112.145 166.508 C 110.702 165.628,110.707 165.643,111.333 163.913 C 111.852 162.477,111.326 161.410,110.101 161.410 C 108.205 161.410,107.159 157.154,107.153 149.424 C 107.149 142.790,106.977 142.997,112.473 142.997 C 115.652 142.997,117.071 142.830,118.109 142.336 C 119.381 141.729,119.654 141.724,121.388 142.279 C 123.157 142.844,123.374 142.836,124.723 142.144 C 125.922 141.529,126.869 141.422,130.328 141.515 C 135.461 141.652,135.548 141.735,134.813 145.817 C 133.959 150.566,133.792 169.078,134.587 170.842 C 135.202 172.205,135.188 231.743,134.571 238.394 C 134.472 239.471,134.255 242.733,134.090 245.642 L 133.790 250.930 128.306 250.875 C 125.289 250.844,121.146 250.712,119.099 250.581 C 112.353 250.149,108.374 250.602,107.405 251.913 C 106.190 253.557,105.717 257.164,106.437 259.296 C 106.918 260.723,106.992 263.988,106.885 279.277 C 106.718 303.329,105.219 301.039,120.890 300.671 C 126.692 300.535,153.301 300.462,180.020 300.508 C 231.624 300.598,232.871 300.562,241.559 298.713 C 272.182 292.197,294.210 271.216,303.783 239.444 C 314.704 203.202,310.288 161.477,292.730 135.017 C 286.408 125.490,277.269 115.996,270.653 112.083 C 267.467 110.200,267.128 109.986,265.230 108.668 C 264.261 107.995,262.762 107.087,261.900 106.650 C 261.038 106.213,259.892 105.466,259.354 104.990 C 258.482 104.220,255.162 102.531,249.418 99.934 C 248.370 99.461,245.902 98.655,243.933 98.143 C 241.964 97.631,238.942 96.750,237.218 96.185 C 232.867 94.759,223.302 94.494,175.122 94.465 C 154.114 94.453,136.572 94.357,136.141 94.252 C 135.710 94.148,135.005 94.218,134.574 94.408 M193.953 141.836 C 194.922 142.354,194.923 143.467,193.957 144.342 C 192.946 145.257,191.871 144.986,191.420 143.702 C 190.793 141.920,192.189 140.892,193.953 141.836 M213.712 142.136 C 219.045 142.381,220.220 142.551,221.586 143.276 C 225.334 145.264,229.647 149.209,231.562 152.400 C 232.274 153.585,233.349 155.193,233.953 155.974 C 238.031 161.248,242.316 173.070,244.064 183.867 C 244.860 188.789,245.044 202.784,244.351 205.681 C 244.016 207.081,243.638 209.247,243.511 210.493 C 243.204 213.512,242.358 217.213,240.946 221.710 C 240.512 223.092,240.157 224.551,240.157 224.951 C 240.157 226.289,237.764 231.399,236.413 232.947 C 235.679 233.788,235.075 234.616,235.071 234.787 C 235.061 235.192,232.026 239.336,230.978 240.374 C 230.532 240.816,229.541 241.893,228.776 242.766 C 226.352 245.536,221.625 248.480,217.630 249.709 C 215.032 250.509,193.795 250.759,193.035 249.999 C 192.670 249.635,192.533 243.804,192.460 225.544 C 192.408 212.357,192.266 195.749,192.146 188.639 C 192.025 181.528,191.889 173.242,191.842 170.225 C 191.795 167.209,191.605 164.063,191.421 163.236 C 191.149 162.018,191.253 161.371,191.968 159.845 C 192.822 158.021,192.830 157.897,192.214 156.089 C 190.863 152.123,191.509 148.329,193.610 147.895 C 195.618 147.480,197.659 145.959,199.438 143.550 L 201.063 141.351 204.253 141.599 C 206.008 141.736,210.264 141.978,213.712 142.136 M100.133 180.802 C 100.268 181.340,100.246 182.090,100.084 182.467 C 99.922 182.845,99.828 183.639,99.875 184.231 C 99.923 184.824,99.764 185.309,99.522 185.309 C 99.232 185.309,99.171 185.775,99.340 186.680 C 99.549 187.795,99.477 188.051,98.954 188.051 C 98.089 188.051,97.713 186.943,98.273 186.045 C 98.523 185.646,98.727 184.634,98.727 183.796 C 98.727 180.489,99.592 178.647,100.133 180.802 M98.721 190.108 C 98.717 190.593,98.544 191.254,98.335 191.577 C 98.052 192.014,97.954 191.788,97.949 190.695 C 97.946 189.887,98.119 189.226,98.335 189.226 C 98.550 189.226,98.724 189.623,98.721 190.108 M93.877 203.577 C 91.441 205.843,89.716 206.854,89.716 206.016 C 89.716 204.623,93.887 200.009,95.397 199.732 C 97.203 199.401,96.527 201.113,93.877 203.577 M98.687 208.782 C 100.097 209.675,93.509 222.527,91.642 222.527 C 90.941 222.527,91.297 219.945,92.184 218.602 C 92.679 217.852,93.576 216.058,94.177 214.615 C 95.358 211.783,97.348 208.419,97.837 208.429 C 98.003 208.432,98.385 208.591,98.687 208.782 " stroke="none" fill="#f8f7af" fill-rule="evenodd"></path><path id="path3" d="M191.936 13.476 C 191.846 13.562,189.657 13.831,187.071 14.074 C 176.527 15.065,168.894 16.286,160.039 18.397 C 159.177 18.603,157.238 19.055,155.730 19.403 C 154.221 19.750,152.458 20.195,151.812 20.391 C 149.746 21.017,144.396 22.777,143.585 23.096 C 143.154 23.266,140.245 24.339,137.120 25.480 C 133.996 26.621,130.324 28.058,128.959 28.675 C 125.725 30.136,115.334 35.339,113.760 36.285 C 113.086 36.691,110.795 38.061,108.667 39.331 C 102.166 43.211,92.222 50.114,88.924 53.038 C 88.165 53.710,86.848 54.789,85.998 55.436 C 79.136 60.651,65.329 75.028,58.350 84.224 C 56.963 86.052,55.616 87.775,55.356 88.054 C 54.718 88.739,49.542 96.661,45.952 102.449 C 43.490 106.417,39.579 113.992,36.447 120.862 C 35.740 122.412,33.436 128.017,32.261 131.048 C 31.927 131.910,31.526 132.880,31.371 133.203 C 31.045 133.881,28.572 141.772,27.687 144.956 C 27.061 147.207,25.696 152.289,25.014 154.904 C 24.796 155.743,24.477 157.241,24.307 158.234 C 24.136 159.227,23.726 161.361,23.395 162.977 C 22.808 165.844,22.075 171.302,21.107 180.020 C 20.211 188.074,20.510 206.485,21.705 216.846 C 22.749 225.903,23.051 227.654,25.294 237.610 C 25.440 238.257,26.086 240.725,26.732 243.095 C 27.377 245.465,28.036 247.933,28.196 248.580 C 28.854 251.229,32.184 260.650,34.083 265.230 C 37.540 273.569,39.188 276.972,44.425 286.582 C 48.363 293.807,57.877 307.370,63.750 314.130 C 69.387 320.620,79.459 330.844,83.056 333.728 C 84.025 334.506,85.965 336.128,87.365 337.332 C 94.298 343.293,108.025 352.442,116.748 356.916 C 130.486 363.961,139.039 367.425,151.616 371.036 C 154.740 371.933,158.002 372.810,158.864 372.984 C 159.726 373.159,162.370 373.761,164.740 374.323 C 167.111 374.885,170.439 375.519,172.137 375.732 C 173.834 375.944,175.336 376.188,175.474 376.273 C 178.907 378.394,219.217 378.256,228.599 376.091 C 229.461 375.892,230.904 375.725,231.806 375.720 C 232.708 375.714,233.863 375.551,234.374 375.357 C 234.885 375.163,237.056 374.617,239.199 374.144 C 244.470 372.981,245.262 372.789,249.559 371.623 C 255.404 370.038,258.708 369.040,259.446 368.638 C 259.820 368.433,260.349 368.267,260.622 368.268 C 261.056 368.269,263.688 367.272,267.385 365.706 C 268.031 365.432,270.588 364.379,273.066 363.366 C 283.108 359.261,297.610 351.062,306.954 344.208 C 310.573 341.553,314.592 338.496,315.228 337.914 C 315.469 337.693,316.614 336.719,317.772 335.749 C 322.346 331.918,323.656 330.684,330.407 323.842 C 337.002 317.157,345.836 306.711,349.329 301.469 C 350.190 300.176,351.679 297.973,352.637 296.572 C 355.774 291.987,361.684 281.686,363.876 276.983 C 364.829 274.936,366.384 271.611,367.330 269.593 C 368.276 267.576,369.050 265.716,369.050 265.460 C 369.050 265.204,369.200 264.828,369.384 264.623 C 369.672 264.302,371.368 259.725,373.151 254.456 C 373.765 252.643,376.133 244.878,377.034 241.724 C 377.372 240.539,378.172 236.925,378.811 233.692 C 384.129 206.805,384.012 182.964,378.431 155.926 C 377.674 152.257,377.388 151.152,375.690 145.348 C 374.727 142.055,371.155 131.082,370.652 129.873 C 367.591 122.509,362.644 111.782,360.985 108.913 C 360.425 107.943,358.858 105.211,357.503 102.840 C 354.690 97.919,346.797 86.359,344.021 83.095 C 342.994 81.888,341.501 79.988,340.702 78.873 C 339.904 77.757,339.124 76.788,338.969 76.718 C 338.814 76.648,337.913 75.710,336.966 74.633 C 329.176 65.769,313.834 51.866,306.954 47.434 C 306.092 46.879,304.417 45.709,303.232 44.833 C 301.297 43.403,292.687 38.045,291.685 37.647 C 291.464 37.559,290.632 37.078,289.837 36.579 C 281.165 31.132,259.372 22.251,248.137 19.585 C 233.429 16.094,232.634 15.960,213.245 13.734 C 209.874 13.347,192.294 13.134,191.936 13.476 M220.372 19.555 C 233.728 20.902,249.985 24.781,262.499 29.607 C 265.617 30.809,268.804 32.035,269.581 32.330 C 274.835 34.325,286.478 40.259,292.417 43.969 C 299.027 48.098,306.034 52.952,309.149 55.559 C 309.450 55.811,311.371 57.355,313.418 58.990 C 320.778 64.866,332.816 76.990,337.704 83.448 C 338.438 84.417,339.665 85.937,340.430 86.824 C 342.027 88.676,345.211 93.005,346.878 95.590 C 350.567 101.311,353.625 106.199,354.480 107.738 C 367.342 130.915,374.330 153.406,377.061 180.411 C 378.722 196.829,376.674 223.360,372.601 238.198 C 372.394 238.952,371.845 241.068,371.380 242.899 C 370.460 246.525,368.057 253.967,366.700 257.395 C 366.230 258.580,365.297 261.048,364.625 262.880 C 363.275 266.565,355.373 282.608,353.241 285.994 C 352.495 287.179,351.207 289.253,350.379 290.603 C 346.712 296.580,338.656 307.583,335.553 310.853 C 334.907 311.534,334.025 312.546,333.595 313.102 C 330.976 316.478,325.072 322.350,315.769 330.831 C 315.015 331.518,312.458 333.557,310.088 335.361 C 303.522 340.358,301.904 341.597,301.388 342.021 C 301.127 342.235,300.810 342.409,300.682 342.409 C 300.555 342.409,298.802 343.511,296.787 344.858 C 294.773 346.205,292.189 347.835,291.046 348.482 C 289.903 349.128,287.638 350.413,286.012 351.337 C 277.726 356.047,265.885 361.212,256.611 364.164 C 254.133 364.952,251.665 365.783,251.126 366.011 C 250.588 366.238,249.442 366.552,248.580 366.708 C 247.718 366.864,245.250 367.434,243.095 367.976 C 236.975 369.512,234.782 369.939,225.661 371.370 C 215.350 372.987,191.470 373.491,183.937 372.250 C 182.644 372.037,179.824 371.652,177.669 371.394 C 173.385 370.881,161.590 368.596,158.472 367.674 C 157.395 367.356,154.662 366.582,152.400 365.954 C 145.974 364.172,134.879 360.107,129.873 357.700 C 128.149 356.872,125.240 355.476,123.408 354.598 C 119.367 352.660,115.512 350.560,111.851 348.301 C 110.343 347.370,108.756 346.413,108.324 346.174 C 93.471 337.950,69.644 315.397,58.529 299.039 C 57.328 297.272,56.096 295.620,55.792 295.368 C 55.489 295.115,55.240 294.739,55.240 294.531 C 55.240 294.324,54.735 293.420,54.119 292.522 C 53.502 291.625,52.449 290.010,51.778 288.932 C 51.108 287.855,50.422 286.795,50.255 286.576 C 49.278 285.298,41.358 269.754,40.378 267.189 C 40.089 266.435,39.349 264.715,38.732 263.368 C 38.115 262.021,37.610 260.725,37.610 260.489 C 37.610 260.253,37.358 259.504,37.051 258.825 C 34.607 253.434,30.152 237.692,28.830 229.775 C 28.470 227.620,28.000 224.887,27.785 223.702 C 23.863 202.107,25.198 174.487,31.307 150.833 C 33.509 142.302,37.262 131.326,39.906 125.677 C 40.583 124.232,41.136 122.948,41.136 122.825 C 41.136 121.754,51.576 102.567,54.091 99.014 C 54.737 98.102,55.567 96.915,55.934 96.376 C 58.833 92.131,62.076 87.527,62.281 87.365 C 62.418 87.258,63.573 85.847,64.848 84.231 C 87.493 55.533,123.579 32.298,158.276 24.076 C 159.677 23.744,161.792 23.228,162.977 22.928 C 168.464 21.541,178.763 19.929,186.484 19.248 C 191.543 18.802,215.016 19.015,220.372 19.555 M192.752 21.415 C 173.368 22.440,149.811 27.831,135.155 34.593 C 133.966 35.142,132.027 35.972,130.845 36.437 C 129.664 36.903,126.405 38.475,123.604 39.932 C 115.020 44.395,111.237 46.630,104.799 51.039 C 101.998 52.958,98.913 55.178,97.943 55.973 C 96.974 56.767,95.739 57.703,95.201 58.051 C 94.662 58.399,93.869 59.014,93.438 59.417 C 93.007 59.820,91.244 61.276,89.520 62.653 C 85.826 65.603,73.078 78.341,70.000 82.158 C 68.820 83.621,66.997 85.877,65.949 87.169 C 62.063 91.965,53.673 104.004,53.673 104.786 C 53.673 104.896,52.861 106.253,51.869 107.801 C 48.934 112.381,42.946 124.586,40.657 130.656 C 35.116 145.351,32.973 153.114,30.600 167.091 C 26.934 188.682,27.798 216.754,32.708 235.572 C 33.034 236.822,33.301 238.144,33.300 238.511 C 33.300 239.212,35.384 246.021,37.221 251.322 C 39.626 258.262,40.797 261.546,41.133 262.292 C 42.630 265.614,44.118 268.832,45.996 272.812 C 47.202 275.366,48.188 277.534,48.188 277.630 C 48.188 277.726,48.805 278.769,49.559 279.948 C 50.313 281.127,50.930 282.172,50.930 282.271 C 50.930 283.041,61.272 298.616,64.328 302.449 C 68.493 307.671,70.222 309.755,73.209 313.150 C 79.369 320.152,86.125 326.767,90.301 329.886 C 91.589 330.848,92.998 331.995,93.432 332.435 C 98.126 337.191,114.526 347.491,126.934 353.476 C 136.080 357.887,135.313 357.583,150.833 362.960 C 157.152 365.150,162.321 366.350,173.751 368.281 C 191.493 371.279,213.153 371.273,229.383 368.265 C 230.460 368.066,233.017 367.615,235.064 367.263 C 246.028 365.379,261.638 360.435,272.086 355.536 C 280.849 351.429,284.012 349.795,287.561 347.544 C 296.972 341.576,298.576 340.527,302.253 337.941 C 304.407 336.425,306.259 335.068,306.366 334.926 C 306.646 334.557,309.551 332.172,310.851 331.244 C 317.494 326.504,331.832 311.861,338.194 303.318 C 339.112 302.086,340.127 300.783,340.451 300.423 C 341.258 299.523,345.076 293.974,347.818 289.716 C 376.542 245.102,383.022 187.118,364.894 136.925 C 360.263 124.103,352.185 107.732,347.266 101.201 C 346.750 100.516,346.327 99.833,346.327 99.684 C 346.327 98.757,334.558 83.274,332.050 80.901 C 331.822 80.686,331.043 79.804,330.319 78.942 C 325.915 73.701,315.316 63.715,308.521 58.407 C 306.797 57.060,304.784 55.488,304.047 54.914 C 291.156 44.865,268.474 33.465,252.106 28.807 C 250.167 28.255,247.963 27.601,247.209 27.352 C 246.454 27.104,245.220 26.777,244.466 26.626 C 243.712 26.475,241.685 25.971,239.961 25.507 C 237.376 24.811,230.346 23.547,223.310 22.513 C 217.156 21.608,200.442 21.008,192.752 21.415 M215.867 23.298 C 230.191 24.633,242.958 27.158,253.673 30.776 C 264.458 34.417,265.483 34.811,272.478 38.007 C 283.856 43.205,298.024 51.703,306.366 58.333 C 317.202 66.945,326.896 76.376,334.193 85.406 C 335.151 86.592,336.025 87.649,336.136 87.757 C 336.612 88.221,342.025 95.549,343.049 97.117 C 347.398 103.775,348.602 105.716,350.976 109.892 C 354.484 116.065,355.709 118.458,357.899 123.408 C 358.900 125.671,359.956 128.051,360.246 128.697 C 362.226 133.107,364.568 139.731,366.480 146.327 C 367.043 148.266,367.762 150.735,368.079 151.812 C 368.396 152.889,368.830 154.710,369.044 155.858 C 369.258 157.006,369.534 158.108,369.657 158.308 C 370.412 159.530,372.567 175.486,373.197 184.525 C 374.330 200.793,372.866 219.993,369.371 234.672 C 367.545 242.344,363.065 256.601,361.151 260.833 C 360.540 262.185,360.039 263.370,360.039 263.466 C 360.039 264.357,353.445 277.585,350.176 283.252 C 341.323 298.598,325.396 317.685,313.825 326.813 C 312.648 327.742,311.061 329.084,310.299 329.796 C 309.536 330.509,307.414 332.174,305.583 333.497 C 303.751 334.820,301.548 336.463,300.686 337.148 C 299.824 337.832,296.827 339.811,294.025 341.544 C 291.224 343.277,288.315 345.322,287.561 346.089 C 286.706 346.959,283.581 348.803,279.256 350.990 C 247.172 367.215,212.913 372.731,175.710 367.663 C 166.799 366.449,152.943 363.245,149.461 361.593 C 149.030 361.389,146.937 360.598,144.809 359.836 C 137.249 357.129,130.178 354.068,123.800 350.742 C 120.245 348.887,115.919 346.635,114.187 345.738 C 103.461 340.178,80.087 321.400,76.884 315.769 C 76.332 314.799,75.145 313.213,74.245 312.243 C 62.784 299.891,50.047 280.126,43.820 265.034 C 27.207 224.767,25.092 184.800,37.413 143.976 C 40.597 133.429,44.827 123.568,51.614 110.874 C 54.034 106.347,60.150 96.876,63.254 92.850 C 64.001 91.881,65.446 89.941,66.465 88.541 C 67.483 87.140,68.423 85.906,68.553 85.798 C 68.683 85.690,70.502 83.636,72.595 81.232 C 89.202 62.158,109.509 47.462,135.162 35.955 C 136.807 35.216,147.875 31.249,150.637 30.407 C 151.714 30.079,154.056 29.362,155.841 28.815 C 161.107 27.201,174.269 24.670,181.391 23.903 C 183.653 23.660,186.827 23.317,188.443 23.142 C 193.432 22.603,209.376 22.693,215.867 23.298 M150.224 44.696 C 150.079 44.930,150.157 45.318,150.397 45.558 C 150.636 45.798,150.833 46.505,150.833 47.130 C 150.833 48.151,151.438 49.921,152.433 51.807 C 152.630 52.181,152.791 52.997,152.791 53.620 C 152.791 54.243,153.062 54.977,153.392 55.251 C 154.040 55.789,154.025 56.541,153.189 65.374 C 152.773 69.771,152.892 71.244,153.704 71.765 C 154.267 72.126,156.006 69.709,155.789 68.868 C 155.693 68.499,155.865 67.990,156.171 67.736 C 156.651 67.338,156.649 67.156,156.159 66.408 C 155.716 65.731,155.676 65.166,155.976 63.829 C 156.281 62.471,156.246 62.033,155.805 61.711 C 155.444 61.447,155.315 60.860,155.437 60.031 C 155.611 58.847,156.317 57.813,156.317 58.743 C 156.317 58.971,156.582 59.158,156.905 59.158 C 157.837 59.158,157.620 56.994,156.513 55.240 C 154.755 52.454,155.293 51.644,157.360 53.967 C 158.847 55.637,158.784 55.429,158.305 57.098 C 157.989 58.201,158.064 58.458,158.889 59.107 C 159.794 59.820,159.802 59.861,159.056 60.056 C 158.627 60.168,158.276 60.100,158.276 59.905 C 158.276 59.422,156.815 59.452,156.513 59.941 C 156.380 60.157,156.437 60.333,156.640 60.333 C 156.843 60.333,157.102 60.686,157.214 61.117 C 157.327 61.548,157.260 61.900,157.064 61.900 C 156.869 61.900,156.709 62.253,156.709 62.684 C 156.709 64.049,158.619 63.726,159.125 62.274 C 159.632 60.820,160.292 60.951,160.843 62.615 C 161.069 63.300,161.452 64.057,161.693 64.299 C 162.159 64.764,161.929 65.837,161.268 66.278 C 161.015 66.447,161.069 66.778,161.418 67.198 C 161.718 67.559,161.973 68.322,161.986 68.893 C 162.006 69.786,162.158 69.916,163.081 69.819 C 163.804 69.743,164.153 69.889,164.153 70.269 C 164.153 70.652,163.713 70.833,162.782 70.833 C 162.027 70.833,161.410 70.674,161.410 70.480 C 161.410 69.891,158.798 70.087,158.276 70.715 C 157.905 71.163,157.897 71.433,158.243 71.850 C 158.493 72.152,158.776 72.804,158.871 73.300 C 158.967 73.796,159.316 74.353,159.648 74.539 C 160.447 74.986,160.021 75.612,158.919 75.612 C 158.436 75.612,157.834 75.820,157.580 76.073 C 157.227 76.426,156.950 76.381,156.394 75.877 C 154.587 74.242,154.251 75.408,155.966 77.361 C 157.418 79.015,159.099 79.214,160.499 77.898 C 161.318 77.129,161.835 77.049,166.071 77.034 L 170.739 77.018 169.895 75.903 C 169.430 75.290,168.477 74.143,167.777 73.355 C 167.076 72.568,166.503 71.607,166.503 71.221 C 166.503 70.835,166.148 70.164,165.714 69.730 C 165.156 69.172,164.996 68.654,165.169 67.967 C 165.303 67.431,165.246 66.993,165.042 66.993 C 164.837 66.993,164.443 66.244,164.165 65.328 C 163.887 64.412,163.427 62.958,163.144 62.096 C 162.860 61.234,162.359 59.559,162.030 58.374 C 161.262 55.608,156.871 49.363,155.694 49.363 C 155.407 49.363,154.832 48.998,154.415 48.550 C 153.562 47.634,152.977 48.096,153.380 49.367 C 153.534 49.851,153.449 50.147,153.156 50.147 C 152.814 50.147,152.753 49.553,152.936 47.995 C 153.254 45.289,151.315 42.931,150.224 44.696 M269.736 49.061 C 266.138 50.343,264.197 52.701,265.508 54.196 C 265.918 54.662,268.040 57.015,270.224 59.423 C 274.573 64.219,275.145 65.383,275.193 69.540 L 275.220 71.890 273.066 72.943 C 271.881 73.522,270.029 74.416,268.952 74.929 C 263.527 77.513,261.785 78.656,259.257 81.285 C 257.804 82.798,256.614 84.152,256.613 84.296 C 256.612 84.439,255.695 85.228,254.576 86.050 C 251.700 88.162,250.825 89.035,250.359 90.261 C 249.753 91.854,249.860 93.544,250.592 93.954 C 251.174 94.279,251.150 94.479,250.343 96.097 C 249.333 98.118,249.482 98.959,250.946 99.516 C 252.145 99.972,254.261 100.029,254.261 99.606 C 254.261 99.260,257.053 98.335,258.097 98.335 C 258.490 98.335,259.154 98.076,259.573 97.760 C 260.531 97.035,261.701 96.928,260.999 97.630 C 259.882 98.747,260.434 99.902,262.084 99.902 C 264.056 99.902,263.873 100.737,261.678 101.748 C 259.159 102.908,259.619 104.425,263.075 106.359 C 264.153 106.961,265.299 107.679,265.622 107.953 C 266.563 108.751,272.934 112.047,273.536 112.047 C 273.838 112.047,275.154 111.185,276.462 110.131 C 279.249 107.885,279.450 107.942,280.072 111.155 C 280.594 113.849,283.111 118.428,284.187 118.640 C 284.658 118.733,285.153 118.079,285.967 116.289 C 286.587 114.926,287.464 113.386,287.916 112.869 C 288.403 112.310,288.737 111.387,288.737 110.597 C 288.737 109.866,289.354 106.162,290.108 102.366 C 291.993 92.878,292.006 87.076,290.178 72.086 C 288.725 60.174,284.951 51.842,279.955 49.515 C 277.747 48.487,272.055 48.234,269.736 49.061 M154.358 53.085 C 154.358 53.408,154.182 53.673,153.967 53.673 C 153.751 53.673,153.575 53.408,153.575 53.085 C 153.575 52.762,153.751 52.498,153.967 52.498 C 154.182 52.498,154.358 52.762,154.358 53.085 M139.437 62.586 C 139.418 62.747,139.339 63.849,139.261 65.034 C 138.936 69.974,138.625 72.867,138.060 76.200 C 137.731 78.139,137.240 81.136,136.970 82.860 C 136.699 84.584,136.182 86.558,135.820 87.248 C 134.761 89.265,134.941 90.676,136.035 88.932 C 136.508 88.178,136.995 87.473,137.118 87.365 C 137.456 87.070,139.318 82.292,139.790 80.509 C 141.062 75.706,141.130 75.103,140.883 70.818 C 140.526 64.633,140.236 62.292,139.825 62.292 C 139.630 62.292,139.456 62.424,139.437 62.586 M158.668 64.447 C 158.668 65.165,158.877 65.426,159.452 65.426 C 159.934 65.426,160.237 65.689,160.241 66.112 C 160.246 66.698,160.302 66.712,160.627 66.210 C 161.310 65.152,161.077 63.966,160.137 63.714 C 158.772 63.348,158.668 63.400,158.668 64.447 M245.037 73.974 C 237.400 81.549,236.390 82.095,231.929 81.066 C 229.483 80.501,221.340 80.360,217.238 80.811 C 203.193 82.354,203.384 82.318,205.824 82.991 C 206.591 83.203,208.322 83.254,209.680 83.104 C 211.036 82.955,215.847 82.850,220.372 82.871 C 233.589 82.932,236.261 83.998,232.822 87.837 C 229.291 91.778,228.562 93.219,230.069 93.275 C 232.945 93.381,236.261 94.065,237.537 94.815 C 239.135 95.754,241.840 96.468,244.025 96.526 L 245.739 96.572 246.478 94.248 C 247.000 92.608,247.144 91.379,246.970 90.065 C 246.772 88.573,246.877 87.987,247.502 87.100 C 250.270 83.168,250.816 81.374,250.761 76.385 C 250.717 72.421,250.836 71.382,251.505 69.869 C 253.197 66.045,252.739 66.336,245.037 73.974 M156.396 70.619 C 156.031 71.060,156.011 71.309,156.324 71.503 C 156.904 71.861,157.201 71.521,157.038 70.685 C 156.918 70.073,156.855 70.066,156.396 70.619 M161.802 71.890 C 161.802 72.228,161.449 72.478,160.971 72.478 C 160.276 72.478,160.219 72.381,160.627 71.890 C 160.895 71.567,161.269 71.303,161.458 71.303 C 161.647 71.303,161.802 71.567,161.802 71.890 M153.746 73.505 C 154.015 74.989,154.247 75.070,155.327 74.055 C 156.482 72.971,156.292 72.478,154.719 72.478 C 153.682 72.478,153.579 72.586,153.746 73.505 M165.575 72.986 C 165.708 73.119,165.694 73.544,165.544 73.930 C 165.286 74.596,165.243 74.593,164.717 73.878 C 164.110 73.053,163.760 73.186,163.597 74.303 C 163.469 75.175,162.194 75.530,162.194 74.694 C 162.194 74.373,161.974 74.021,161.704 73.913 C 161.420 73.798,161.512 73.702,161.923 73.684 C 162.313 73.667,162.532 73.492,162.410 73.295 C 162.033 72.684,164.984 72.395,165.575 72.986 M249.559 79.071 C 249.559 79.926,247.275 84.444,244.160 89.752 C 242.820 92.035,241.724 94.106,241.724 94.356 C 241.724 94.891,239.520 94.972,239.197 94.449 C 239.074 94.251,239.201 93.854,239.477 93.567 C 241.813 91.147,245.907 84.708,247.828 80.433 C 248.861 78.135,249.559 77.586,249.559 79.071 M282.076 85.646 C 282.076 86.581,281.145 88.822,279.138 92.718 C 276.255 98.314,275.807 99.510,276.592 99.510 C 276.807 99.510,276.983 99.334,276.983 99.119 C 276.983 98.393,278.523 97.174,279.141 97.411 C 280.725 98.019,273.600 109.991,271.608 110.069 C 270.058 110.130,260.921 104.948,260.921 104.008 C 260.921 103.726,261.802 102.848,262.880 102.057 C 265.318 100.267,265.633 98.809,263.529 99.051 C 262.440 99.176,262.418 99.140,262.549 97.492 C 262.708 95.504,262.105 95.180,260.055 96.151 C 259.346 96.487,257.708 97.037,256.415 97.372 C 255.122 97.708,253.674 98.239,253.197 98.551 C 250.826 100.102,249.919 98.764,251.573 96.157 C 252.797 94.226,252.940 93.615,252.497 92.208 C 251.517 89.097,267.176 84.072,275.104 84.954 C 279.181 85.407,279.424 85.393,280.381 84.640 C 281.642 83.648,282.076 83.906,282.076 85.646 M133.888 91.828 C 133.173 92.372,132.991 92.850,133.500 92.850 C 133.664 92.850,134.018 92.498,134.287 92.067 C 134.857 91.154,134.813 91.127,133.888 91.828 M104.603 108.510 C 104.603 108.719,103.453 110.399,102.047 112.242 C 96.348 119.711,92.031 128.728,89.948 137.512 C 89.239 140.504,87.787 147.327,87.573 148.678 C 87.436 149.540,87.233 150.552,87.123 150.928 C 86.977 151.426,87.089 151.547,87.536 151.376 C 87.873 151.246,88.149 150.836,88.149 150.464 C 88.149 150.092,88.278 149.659,88.436 149.501 C 88.797 149.140,89.680 146.430,90.109 144.368 C 92.055 135.018,94.024 129.577,97.978 122.625 C 98.652 121.440,99.646 119.677,100.187 118.707 C 100.728 117.738,101.634 116.398,102.201 115.730 C 105.774 111.522,105.779 111.515,105.779 109.805 C 105.779 108.577,105.622 108.129,105.191 108.129 C 104.868 108.129,104.603 108.301,104.603 108.510 M296.970 134.084 C 296.966 134.677,297.140 135.162,297.356 135.162 C 297.851 135.162,297.851 134.361,297.356 133.595 C 297.060 133.137,296.974 133.245,296.970 134.084 M297.605 136.535 C 297.377 137.129,298.334 140.641,299.349 142.934 C 299.976 144.350,300.707 144.616,300.330 143.291 C 300.192 142.806,299.905 141.532,299.690 140.460 C 298.938 136.694,298.129 135.170,297.605 136.535 M126.151 142.499 C 125.828 142.621,125.057 143.143,124.439 143.657 C 123.437 144.491,123.224 144.534,122.480 144.051 C 120.009 142.446,119.974 142.434,119.327 142.971 C 117.306 144.648,122.658 150.057,126.326 150.045 C 128.936 150.037,134.299 146.464,134.424 144.649 C 134.504 143.502,134.318 142.813,133.849 142.513 C 133.327 142.180,127.022 142.168,126.151 142.499 M199.407 144.570 C 197.957 146.244,196.695 147.238,195.054 147.998 C 190.976 149.888,191.055 154.066,195.256 158.668 L 196.866 160.431 195.111 160.556 C 192.432 160.746,191.195 162.574,193.242 163.317 C 200.434 165.930,216.364 155.788,215.791 148.961 C 215.634 147.088,209.744 142.554,207.555 142.621 C 207.278 142.629,207.635 142.889,208.347 143.199 C 210.523 144.144,214.328 147.008,214.915 148.143 C 216.468 151.147,208.391 160.145,202.663 161.791 C 199.908 162.582,192.860 162.819,193.453 162.101 C 193.807 161.672,194.394 161.545,195.412 161.675 C 196.380 161.800,197.128 161.655,197.649 161.244 C 198.522 160.556,198.735 160.837,195.384 158.253 C 193.578 156.860,192.699 154.676,192.832 151.915 L 192.948 149.511 195.220 148.356 C 196.670 147.619,198.209 146.376,199.475 144.920 L 201.459 142.639 204.060 142.503 L 206.660 142.367 204.054 142.290 L 201.449 142.214 199.407 144.570 M133.925 143.266 C 134.590 144.454,133.598 145.597,130.287 147.456 C 125.679 150.042,123.101 149.694,120.568 146.145 C 118.675 143.492,119.807 142.163,121.915 144.564 C 123.015 145.818,124.584 146.153,124.584 145.134 C 124.584 142.873,132.787 141.232,133.925 143.266 M112.831 168.236 C 107.500 169.710,103.260 174.758,103.454 179.400 C 103.468 179.741,103.911 178.613,104.437 176.894 C 106.803 169.172,114.034 166.408,125.563 168.818 C 134.702 170.728,134.515 170.453,134.183 181.524 C 133.919 190.338,133.764 213.038,133.946 216.259 C 134.081 218.667,133.418 227.346,133.053 227.937 C 132.891 228.200,132.021 228.789,131.119 229.245 C 130.218 229.702,128.906 230.578,128.202 231.191 C 123.836 235.000,120.582 234.455,115.610 229.083 C 114.405 227.780,112.232 225.768,110.782 224.611 C 107.583 222.058,107.427 221.784,106.934 217.852 C 106.537 214.686,106.061 213.560,102.118 206.464 C 100.095 202.823,100.151 199.897,102.432 190.206 C 102.736 188.913,103.074 186.092,103.182 183.937 L 103.379 180.020 102.997 183.154 C 102.787 184.878,102.198 188.051,101.688 190.206 C 99.280 200.387,99.304 203.000,101.846 207.302 C 105.555 213.579,106.048 214.738,106.254 217.672 C 106.505 221.239,107.461 222.920,110.689 225.465 C 112.055 226.543,114.079 228.441,115.185 229.683 C 116.292 230.925,118.198 232.579,119.421 233.357 C 120.645 234.136,122.391 235.455,123.302 236.289 C 125.208 238.035,125.825 238.153,126.641 236.925 C 127.139 236.173,127.581 236.041,129.631 236.028 C 133.427 236.004,133.427 236.004,133.997 226.445 C 134.260 222.027,134.416 217.091,134.343 215.475 C 134.142 211.039,134.272 192.582,134.579 181.978 C 134.846 172.724,134.837 172.559,134.002 171.504 C 131.808 168.730,118.484 166.673,112.831 168.236 M313.717 206.708 C 313.392 207.265,314.018 208.646,314.351 208.106 C 314.508 207.853,314.475 207.357,314.277 207.005 C 314.080 206.652,313.828 206.518,313.717 206.708 M315.559 213.247 C 315.379 213.958,315.495 214.791,315.887 215.597 C 316.221 216.284,316.782 217.512,317.134 218.325 C 317.486 219.139,318.021 220.373,318.323 221.068 L 318.872 222.331 318.888 220.857 C 318.896 220.046,318.743 219.076,318.548 218.702 C 318.353 218.328,317.663 216.699,317.015 215.083 C 315.923 212.360,315.817 212.225,315.559 213.247 M319.440 228.246 C 319.492 230.870,319.609 231.311,320.432 231.977 C 321.801 233.086,321.850 232.711,320.843 228.806 C 319.730 224.489,319.363 224.342,319.440 228.246 " stroke="none" fill="#7d651e" fill-rule="evenodd"></path><path id="path4" d="M193.732 11.941 C 193.516 12.011,190.960 12.267,188.051 12.511 C 159.413 14.914,137.077 21.759,111.039 36.110 C 91.614 46.818,68.261 67.698,55.030 86.190 C 54.182 87.375,53.351 88.521,53.183 88.737 C 46.278 97.592,35.891 116.813,31.377 129.089 C 30.267 132.106,29.215 134.927,29.038 135.357 C 23.421 149.046,17.673 184.007,18.603 198.825 C 19.123 207.114,20.003 217.330,20.374 219.393 C 20.587 220.578,20.940 222.782,21.157 224.290 C 21.971 229.937,24.197 240.315,26.007 246.897 C 29.277 258.789,37.523 278.123,43.526 287.971 C 44.636 289.793,46.145 292.324,46.880 293.597 C 52.293 302.979,62.841 316.039,73.744 326.860 C 85.792 338.817,98.085 348.159,112.635 356.415 C 122.717 362.135,142.418 370.441,151.028 372.600 C 151.675 372.762,153.614 373.274,155.338 373.738 C 157.062 374.202,159.706 374.820,161.214 375.113 C 162.723 375.405,165.632 375.997,167.679 376.429 C 190.834 381.314,213.762 380.919,241.920 375.150 C 250.186 373.456,260.223 370.234,272.674 365.279 C 275.809 364.031,289.620 357.040,293.011 354.985 C 294.823 353.886,296.369 352.987,296.447 352.987 C 297.232 352.987,311.916 342.561,316.748 338.572 C 323.578 332.935,334.275 322.615,337.949 318.119 C 338.565 317.365,339.841 315.920,340.785 314.908 C 341.728 313.896,342.877 312.545,343.336 311.907 C 343.796 311.269,345.509 309.012,347.142 306.892 C 349.991 303.194,358.472 290.656,358.472 290.143 C 358.472 290.006,358.895 289.238,359.413 288.434 C 361.675 284.920,367.423 273.655,368.952 269.736 C 369.289 268.874,370.348 266.317,371.305 264.055 C 373.053 259.924,374.893 254.637,376.486 249.167 C 376.957 247.551,377.584 245.436,377.880 244.466 C 380.272 236.640,382.932 221.814,383.574 212.733 C 384.841 194.794,384.841 195.793,383.563 179.040 C 382.677 167.427,380.480 155.834,376.842 143.585 C 375.615 139.453,372.590 130.422,371.987 129.089 C 371.695 128.443,370.453 125.534,369.228 122.625 C 367.228 117.877,365.076 113.502,360.667 105.227 C 344.602 75.075,313.302 45.669,280.780 30.175 C 270.800 25.420,267.219 23.938,260.529 21.797 C 258.051 21.004,255.495 20.170,254.848 19.946 C 245.980 16.860,231.696 14.032,219.393 12.927 C 217.130 12.724,213.604 12.379,211.557 12.162 C 208.182 11.804,194.677 11.636,193.732 11.941 M209.598 12.957 C 277.889 16.933,335.776 55.257,365.184 115.961 C 414.860 218.501,359.241 341.988,249.766 372.215 C 148.425 400.195,45.427 336.683,23.533 232.713 C 14.426 189.464,23.199 136.893,45.285 102.366 C 46.020 101.218,46.621 100.213,46.621 100.134 C 46.621 99.854,53.018 90.317,55.170 87.389 C 86.981 44.109,135.608 17.120,188.639 13.311 C 200.184 12.482,201.164 12.465,209.598 12.957 M141.420 44.883 C 140.840 46.409,140.964 53.974,141.673 60.333 C 143.365 75.514,141.483 85.422,135.558 92.519 L 134.546 93.732 121.889 93.661 C 105.257 93.569,106.436 92.737,106.393 104.603 L 106.366 112.243 103.524 116.161 C 100.469 120.372,97.193 126.397,95.216 131.440 C 94.541 133.164,93.749 135.103,93.457 135.749 C 93.165 136.396,92.457 139.128,91.884 141.822 C 90.430 148.657,87.235 157.386,84.858 161.019 C 73.907 177.752,75.578 217.926,88.233 242.193 L 90.214 245.992 90.000 249.832 C 89.689 255.425,88.891 258.004,85.755 263.559 C 84.849 265.164,84.841 265.252,85.499 266.301 C 88.145 270.517,88.289 272.406,86.288 276.641 C 84.514 280.396,84.311 281.532,84.529 286.476 C 84.675 289.800,84.565 291.714,84.111 293.689 C 83.772 295.167,83.387 297.320,83.256 298.474 C 83.037 300.406,81.964 303.740,80.556 306.864 C 77.321 314.044,77.051 314.927,77.760 316.009 C 80.760 320.588,98.020 334.944,108.902 341.911 C 115.687 346.256,117.222 346.255,118.113 341.906 C 118.399 340.515,119.990 339.693,121.081 340.374 C 123.144 341.662,127.326 340.377,127.326 338.456 C 127.326 338.102,128.501 336.318,130.167 334.144 C 130.759 333.370,131.244 332.279,131.244 331.720 C 131.244 331.160,131.432 330.586,131.662 330.444 C 134.248 328.846,134.976 325.102,133.372 321.655 C 132.823 320.476,132.465 319.163,132.576 318.737 C 132.687 318.312,132.436 317.409,132.017 316.731 C 131.439 315.797,131.213 314.558,131.083 311.618 C 130.988 309.484,130.694 306.911,130.429 305.900 C 129.449 302.162,131.392 300.909,137.023 301.647 C 139.525 301.975,142.532 302.058,145.739 301.887 C 155.004 301.393,171.142 301.199,171.811 301.574 C 172.379 301.892,172.290 302.065,171.151 302.862 C 169.326 304.137,169.237 304.339,169.500 306.610 L 169.734 308.616 167.629 309.095 C 162.288 310.312,162.586 310.147,162.586 311.886 C 162.586 313.795,161.870 315.263,159.497 318.216 C 157.579 320.603,157.373 320.703,155.685 320.061 C 154.349 319.554,153.606 320.237,152.649 322.855 C 151.523 325.933,151.188 326.213,149.552 325.437 C 146.395 323.938,143.310 326.046,142.003 330.594 C 141.360 332.834,139.984 335.303,137.627 338.450 C 135.909 340.742,135.982 341.226,138.394 343.520 C 143.149 348.046,146.274 349.245,149.270 347.696 C 150.297 347.165,150.575 347.171,152.033 347.754 C 153.393 348.298,153.966 348.330,155.603 347.952 C 160.981 346.711,162.328 349.384,158.374 353.452 C 156.584 355.294,156.121 356.028,156.121 357.023 C 156.121 358.559,154.305 359.646,151.737 359.647 C 148.544 359.648,149.345 361.077,153.183 362.226 C 161.146 364.611,170.713 366.532,177.503 367.108 C 180.393 367.354,182.860 367.618,182.987 367.697 C 185.798 369.434,211.861 369.057,224.878 367.092 C 241.898 364.522,251.572 361.873,268.560 355.131 C 272.953 353.388,285.994 346.608,285.994 346.067 C 285.994 344.215,279.625 344.700,275.711 346.850 C 271.627 349.094,270.852 347.563,274.598 344.654 C 275.872 343.665,277.150 342.419,277.439 341.885 C 279.063 338.878,281.543 335.795,283.324 334.571 C 284.418 333.818,285.952 332.592,286.731 331.846 C 287.511 331.099,288.955 330.108,289.940 329.643 C 291.424 328.943,291.877 328.458,292.586 326.811 C 293.056 325.718,293.631 324.707,293.863 324.563 C 294.096 324.419,294.614 323.536,295.015 322.601 C 295.543 321.370,296.166 320.685,297.272 320.121 C 298.113 319.692,299.313 318.735,299.939 317.995 C 310.902 305.034,312.896 301.580,311.826 297.404 C 311.459 295.971,311.449 295.207,311.785 294.242 C 312.029 293.542,312.326 291.796,312.444 290.363 C 312.562 288.930,312.950 286.380,313.304 284.696 C 313.840 282.156,313.866 281.405,313.460 280.282 C 313.022 279.071,313.063 278.779,313.850 277.506 C 314.921 275.774,315.343 270.831,314.610 268.610 C 313.012 263.769,305.077 264.366,299.453 269.751 C 296.610 272.472,294.688 273.365,289.814 274.223 C 285.436 274.995,285.414 274.976,287.692 272.422 C 296.825 262.188,306.172 241.041,308.504 225.340 C 308.845 223.039,309.291 220.186,309.494 219.001 C 310.844 211.115,310.822 189.614,309.454 179.628 C 307.642 166.407,305.218 157.445,301.083 148.678 C 297.656 141.414,296.009 138.071,295.388 137.120 C 295.036 136.582,294.056 135.086,293.211 133.797 C 288.213 126.173,278.615 116.182,272.591 112.334 C 271.452 111.606,268.227 109.625,265.426 107.932 C 262.625 106.239,260.103 104.534,259.822 104.143 C 259.318 103.440,257.269 102.393,253.085 100.701 C 250.613 99.700,249.894 99.366,247.992 98.334 C 247.238 97.924,246.227 97.581,245.745 97.570 C 244.932 97.553,241.077 96.487,236.435 94.996 C 233.083 93.919,215.595 92.951,204.505 93.227 C 190.593 93.574,169.698 93.575,168.410 93.228 C 166.992 92.846,166.895 92.726,166.895 91.345 C 166.895 89.462,165.053 86.486,163.294 85.526 C 161.402 84.493,154.344 84.511,152.400 85.554 C 150.740 86.444,145.745 90.384,145.028 91.369 C 144.175 92.541,141.589 93.634,139.670 93.634 C 137.543 93.634,137.076 92.950,138.155 91.418 C 142.811 84.812,143.872 82.635,145.886 75.571 C 150.009 61.104,149.841 53.935,145.223 47.362 C 142.643 43.688,142.027 43.287,141.420 44.883 M175.122 94.465 C 223.302 94.494,232.867 94.759,237.218 96.185 C 238.942 96.750,241.964 97.631,243.933 98.143 C 245.902 98.655,248.370 99.461,249.418 99.934 C 255.162 102.531,258.482 104.220,259.354 104.990 C 259.892 105.466,261.038 106.213,261.900 106.650 C 262.762 107.087,264.261 107.995,265.230 108.668 C 267.128 109.986,267.467 110.200,270.653 112.083 C 273.493 113.763,277.225 116.916,281.697 121.415 C 300.440 140.271,309.512 165.726,309.563 199.608 C 309.637 247.955,287.842 283.988,251.241 296.032 C 237.264 300.632,237.624 300.609,180.020 300.508 C 153.301 300.462,126.692 300.535,120.890 300.671 C 105.219 301.039,106.718 303.329,106.885 279.277 C 106.992 263.988,106.918 260.723,106.437 259.296 C 105.717 257.164,106.190 253.557,107.405 251.913 C 108.374 250.602,112.353 250.149,119.099 250.581 C 121.146 250.712,125.289 250.844,128.306 250.875 L 133.790 250.930 134.090 245.642 C 134.255 242.733,134.472 239.471,134.571 238.394 C 135.188 231.743,135.202 172.205,134.587 170.842 C 133.792 169.078,133.959 150.566,134.813 145.817 C 135.548 141.735,135.461 141.652,130.328 141.515 C 126.869 141.422,125.922 141.529,124.723 142.144 C 123.374 142.836,123.157 142.844,121.388 142.279 C 119.654 141.724,119.381 141.729,118.109 142.336 C 117.071 142.830,115.652 142.997,112.473 142.997 C 106.977 142.997,107.149 142.790,107.153 149.424 C 107.159 157.154,108.205 161.410,110.101 161.410 C 111.326 161.410,111.852 162.477,111.333 163.913 C 110.707 165.643,110.702 165.628,112.145 166.508 L 113.418 167.284 112.190 167.286 C 110.185 167.288,105.788 169.619,105.781 170.682 C 105.780 170.934,105.643 171.198,105.478 171.270 C 105.312 171.342,104.783 171.909,104.302 172.531 C 103.693 173.319,103.428 173.467,103.428 173.021 C 103.428 171.583,101.006 173.728,100.580 175.543 C 100.458 176.066,100.229 176.934,100.073 177.473 L 99.788 178.452 100.629 177.511 C 101.091 176.993,101.473 176.288,101.478 175.944 C 101.483 175.600,101.831 174.878,102.253 174.339 L 103.019 173.359 103.028 174.946 C 103.032 175.819,102.863 176.706,102.651 176.918 C 102.440 177.129,101.986 179.324,101.644 181.795 C 101.302 184.266,100.870 186.641,100.685 187.071 C 100.499 187.502,100.271 188.384,100.179 189.030 C 100.086 189.677,99.819 190.999,99.585 191.969 C 98.572 196.164,98.301 199.630,98.754 202.576 C 99.212 205.557,99.610 206.512,101.680 209.591 C 103.552 212.377,104.994 215.974,105.001 217.875 C 105.004 218.817,105.261 220.294,105.572 221.156 C 106.193 222.878,106.039 229.084,105.316 231.458 C 104.932 232.717,104.879 232.744,103.251 232.499 C 101.479 232.234,101.106 232.641,101.079 234.868 C 101.073 235.299,100.395 236.502,99.570 237.543 C 97.804 239.772,97.867 242.018,99.807 246.033 C 100.661 247.800,100.851 248.753,100.865 251.322 C 100.874 253.046,101.041 254.704,101.235 255.006 C 101.476 255.379,101.372 255.713,100.911 256.050 C 100.047 256.682,97.675 254.228,96.759 251.757 C 96.226 250.318,96.010 250.134,94.732 250.027 C 93.019 249.884,92.734 249.561,92.068 247.013 C 91.786 245.935,91.317 244.774,91.025 244.433 C 88.441 241.406,83.163 228.286,81.741 221.352 C 80.489 215.247,80.324 214.220,79.898 209.909 C 79.658 207.476,79.332 204.584,79.173 203.483 C 78.702 200.220,78.665 200.257,86.778 195.741 C 87.424 195.381,88.790 194.744,89.814 194.325 C 91.175 193.768,91.675 193.349,91.675 192.766 C 91.675 191.730,90.742 191.743,89.256 192.801 C 86.710 194.614,79.745 197.794,79.239 197.375 C 77.625 196.035,78.934 193.728,82.196 192.164 C 84.774 190.928,84.517 189.980,81.889 191.031 C 80.016 191.781,79.307 191.591,79.055 190.271 C 78.832 189.107,79.687 186.876,80.355 186.876 C 80.644 186.876,80.553 186.573,80.120 186.095 C 79.270 185.155,79.515 180.132,80.509 178.139 C 80.832 177.491,81.097 176.266,81.097 175.416 C 81.097 172.430,83.371 165.579,85.226 162.977 C 85.918 162.008,86.869 160.450,87.341 159.516 C 87.813 158.582,89.397 156.026,90.860 153.835 C 94.332 148.642,94.809 147.663,94.809 145.740 C 94.809 144.120,96.188 142.214,97.360 142.214 C 98.289 142.214,99.958 140.529,101.946 137.582 C 103.054 135.941,104.501 134.104,105.163 133.500 L 106.366 132.402 106.645 122.714 C 106.941 112.438,107.568 96.227,107.674 96.110 C 108.863 94.801,108.774 94.809,121.380 94.781 C 128.206 94.766,134.143 94.598,134.574 94.408 C 135.005 94.218,135.710 94.148,136.141 94.252 C 136.572 94.357,154.114 94.453,175.122 94.465 M191.557 142.041 C 190.897 142.836,191.511 144.699,192.496 144.889 C 193.380 145.059,194.711 143.894,194.711 142.950 C 194.711 141.612,192.453 140.962,191.557 142.041 M199.438 143.550 C 197.659 145.959,195.618 147.480,193.610 147.895 C 191.509 148.329,190.863 152.123,192.214 156.089 C 192.830 157.897,192.822 158.021,191.968 159.845 C 191.253 161.371,191.149 162.018,191.421 163.236 C 191.605 164.063,191.795 167.209,191.842 170.225 C 191.889 173.242,192.025 181.528,192.146 188.639 C 192.266 195.749,192.408 212.357,192.460 225.544 C 192.533 243.804,192.670 249.635,193.035 249.999 C 193.795 250.759,215.032 250.509,217.630 249.709 C 221.625 248.480,226.352 245.536,228.776 242.766 C 229.541 241.893,230.532 240.816,230.978 240.374 C 232.026 239.336,235.061 235.192,235.071 234.787 C 235.075 234.616,235.679 233.788,236.413 232.947 C 237.764 231.399,240.157 226.289,240.157 224.951 C 240.157 224.551,240.512 223.092,240.946 221.710 C 242.358 217.213,243.204 213.512,243.511 210.493 C 243.638 209.247,244.016 207.081,244.351 205.681 C 247.289 193.404,241.501 165.735,233.953 155.974 C 233.349 155.193,232.274 153.585,231.562 152.400 C 229.647 149.209,225.334 145.264,221.586 143.276 C 220.220 142.551,219.045 142.381,213.712 142.136 C 210.264 141.978,206.008 141.736,204.253 141.599 L 201.063 141.351 199.438 143.550 M134.155 142.830 C 135.524 144.199,133.517 148.503,130.887 149.836 C 126.841 151.886,122.362 150.500,119.476 146.305 C 117.527 143.472,118.924 141.341,121.532 143.167 C 122.540 143.873,124.026 143.974,124.405 143.361 C 125.179 142.108,133.006 141.681,134.155 142.830 M208.842 142.865 C 210.347 143.325,212.142 143.490,214.973 143.428 C 219.294 143.334,221.108 143.840,222.440 145.510 C 222.811 145.976,223.688 146.592,224.388 146.879 C 225.088 147.167,225.661 147.521,225.661 147.667 C 225.661 147.813,226.273 148.540,227.020 149.284 C 229.018 151.273,228.317 151.874,226.249 149.945 C 225.808 149.534,225.094 149.285,224.616 149.375 C 223.916 149.508,223.724 149.306,223.521 148.226 C 223.043 145.677,221.346 147.184,221.650 149.886 C 221.922 152.297,216.631 157.240,215.954 155.207 C 215.656 154.315,214.681 154.777,212.576 156.807 C 208.548 160.691,207.829 161.249,205.167 162.561 C 200.176 165.020,192.527 164.937,192.032 162.417 C 191.866 161.569,193.042 160.235,193.956 160.235 C 195.649 160.235,195.898 159.821,194.863 158.731 C 191.209 154.880,191.062 149.366,194.583 148.196 C 196.121 147.685,198.532 145.665,200.460 143.271 C 201.505 141.974,205.324 141.788,208.842 142.865 M223.737 156.304 C 223.958 156.855,223.793 157.166,222.549 158.534 C 222.035 159.099,221.957 159.089,221.695 158.422 C 221.215 157.202,221.318 156.317,221.939 156.317 C 222.262 156.317,222.527 156.141,222.527 155.926 C 222.527 155.345,223.470 155.639,223.737 156.304 M219.735 163.651 C 218.173 165.606,217.562 166.186,216.509 166.711 C 215.874 167.028,215.040 167.287,214.654 167.287 C 214.269 167.287,213.845 167.463,213.712 167.679 C 213.350 168.264,212.064 168.151,211.819 167.513 C 211.665 167.112,212.036 166.883,213.146 166.696 C 213.994 166.552,214.789 166.272,214.912 166.072 C 215.036 165.872,215.758 165.449,216.517 165.132 C 217.275 164.814,217.989 164.200,218.103 163.766 C 218.240 163.240,218.636 162.977,219.291 162.977 C 220.166 162.977,220.214 163.050,219.735 163.651 M206.464 164.545 C 206.141 164.753,206.044 164.927,206.249 164.930 C 206.938 164.941,205.908 165.611,204.799 165.873 C 203.985 166.064,203.722 165.981,203.722 165.531 C 203.722 165.162,204.084 164.936,204.678 164.936 C 205.204 164.936,205.743 164.760,205.877 164.545 C 206.010 164.329,206.329 164.155,206.585 164.159 C 206.866 164.162,206.817 164.316,206.464 164.545 M200.979 166.112 C 200.979 166.327,200.616 166.503,200.173 166.503 C 199.729 166.503,199.475 166.327,199.608 166.112 C 199.741 165.896,200.104 165.720,200.415 165.720 C 200.725 165.720,200.979 165.896,200.979 166.112 M196.201 166.762 C 196.808 167.369,196.780 167.399,195.793 167.211 C 195.165 167.091,194.830 167.162,194.969 167.387 C 195.394 168.075,195.463 172.353,195.054 172.606 C 194.228 173.117,196.286 174.033,197.673 173.773 C 198.763 173.568,199.021 173.341,199.021 172.581 C 199.021 171.412,199.639 170.979,200.109 171.819 C 200.431 172.395,200.520 172.391,201.131 171.780 C 201.499 171.412,202.277 171.086,202.859 171.056 C 203.441 171.025,204.354 170.694,204.886 170.319 C 205.419 169.944,206.080 169.638,206.356 169.638 C 207.106 169.638,206.958 170.800,206.170 171.088 C 205.793 171.225,204.986 171.749,204.377 172.251 C 203.768 172.753,202.958 173.164,202.577 173.164 C 202.195 173.164,201.352 173.429,200.702 173.753 C 199.480 174.363,196.413 175.131,194.726 175.250 C 193.767 175.318,193.762 175.301,193.832 171.988 C 193.871 170.157,193.909 168.085,193.915 167.385 C 193.929 165.922,195.055 165.616,196.201 166.762 M127.914 168.450 C 131.949 169.535,133.670 170.384,134.254 171.576 C 135.208 173.524,134.417 228.568,133.296 238.270 C 132.932 241.422,132.821 241.560,131.300 240.773 C 130.644 240.434,129.680 240.157,129.157 240.157 C 128.634 240.157,127.986 239.892,127.718 239.569 C 127.450 239.246,126.835 238.981,126.352 238.981 C 125.465 238.981,124.324 238.222,122.085 236.142 C 121.412 235.517,119.939 234.386,118.811 233.629 C 117.682 232.872,116.013 231.380,115.102 230.314 C 114.190 229.248,112.164 227.326,110.600 226.042 C 107.201 223.252,106.345 221.727,105.978 217.805 C 105.690 214.730,105.267 213.755,101.273 206.972 C 99.257 203.546,99.137 199.591,100.832 192.360 C 102.134 186.804,103.019 181.976,103.029 180.382 C 103.091 170.060,114.163 164.751,127.914 168.450 M98.972 181.048 C 98.837 181.721,98.727 182.958,98.727 183.796 C 98.727 184.634,98.523 185.646,98.273 186.045 C 97.713 186.943,98.089 188.051,98.954 188.051 C 99.477 188.051,99.549 187.795,99.340 186.680 C 99.171 185.775,99.232 185.309,99.522 185.309 C 99.764 185.309,99.923 184.824,99.875 184.231 C 99.828 183.639,99.922 182.845,100.084 182.467 C 100.423 181.677,100.050 179.824,99.552 179.824 C 99.367 179.824,99.106 180.375,98.972 181.048 M97.949 190.695 C 97.954 191.788,98.052 192.014,98.335 191.577 C 98.834 190.805,98.834 189.226,98.335 189.226 C 98.119 189.226,97.946 189.887,97.949 190.695 M95.397 199.732 C 93.887 200.009,89.716 204.623,89.716 206.016 C 89.716 206.854,91.441 205.843,93.877 203.577 C 96.527 201.113,97.203 199.401,95.397 199.732 M96.402 210.208 C 95.780 211.190,94.778 213.173,94.177 214.615 C 93.576 216.058,92.679 217.852,92.184 218.602 C 91.297 219.945,90.941 222.527,91.642 222.527 C 93.509 222.527,100.097 209.675,98.687 208.782 C 97.790 208.214,97.586 208.342,96.402 210.208 M98.523 258.280 C 99.203 259.644,99.291 260.768,98.743 261.107 C 98.294 261.384,96.768 258.192,96.768 256.976 C 96.768 255.876,97.651 256.532,98.523 258.280 M105.006 260.431 C 105.467 260.979,105.592 262.651,105.631 268.737 C 105.678 276.252,105.668 276.345,104.942 275.448 C 104.537 274.948,104.096 273.855,103.963 273.019 C 103.829 272.183,103.556 271.499,103.356 271.499 C 103.156 271.499,103.253 271.125,103.573 270.668 C 104.131 269.873,104.158 266.375,103.648 261.214 C 103.488 259.598,104.038 259.281,105.006 260.431 M103.036 265.258 C 103.036 265.795,102.251 266.572,101.371 266.905 C 100.497 267.236,100.492 266.641,101.360 265.626 C 102.085 264.780,103.036 264.571,103.036 265.258 M140.255 303.397 C 140.255 303.703,140.792 304.071,141.449 304.216 C 142.105 304.360,142.855 304.819,143.114 305.236 C 143.381 305.666,144.217 306.096,145.046 306.229 C 145.850 306.358,146.709 306.707,146.955 307.003 C 147.232 307.336,148.195 307.542,149.481 307.542 L 151.560 307.542 151.439 305.733 C 151.302 303.681,150.745 303.136,149.332 303.673 C 148.689 303.918,148.215 303.906,147.948 303.638 C 147.354 303.045,145.885 303.142,145.208 303.820 C 144.405 304.622,143.538 304.557,142.605 303.624 C 141.701 302.719,140.255 302.579,140.255 303.397 M132.419 337.534 C 130.634 338.800,130.630 339.745,132.407 340.109 C 134.412 340.519,135.232 339.927,135.086 338.175 C 134.937 336.393,134.257 336.229,132.419 337.534 " stroke="none" fill="#cfbd6d" fill-rule="evenodd"></path></g></svg>